<?xml version="1.0" standalone="no"?><!DOCTYPE svg PUBLIC "-//W3C//DTD SVG 1.1//EN" "http://www.w3.org/Graphics/SVG/1.1/DTD/svg11.dtd" ><svg xmlns="http://www.w3.org/2000/svg"><metadata></metadata><defs><font id="1.100;GOOG;Italianno-Regular" horiz-adv-x="892"><font-face font-family="Italianno" font-weight="400" font-stretch="normal" units-per-em="1000" panose-1="0 0 0 0 0 0 0 0 0 0" ascent="800" descent="-450" x-height="0" bbox="-419 -350 1264 658" underline-thickness="15" underline-position="-102" unicode-range="U+0021-2026" /><missing-glyph horiz-adv-x="398" d="M343 12 l-288 0 l0 577 l288 0 l0 -577 ZM93 553 l0 -506 l212 0 l0 506 l-212 0 Z" /><glyph glyph-name="exclam" unicode="!" d="M168 127 q3 7 14 36 q11 29 27 70.5 q16 41.5 34 88 q18 46.5 34.5 90 q16.5 43.5 29.5 75.5 q5 13 10.5 29.5 q5.5 16.5 8.5 23.5 q13 3 36 10.5 q23 7.5 43 23.5 l1 0 q3 0 6.5 -8 q3.5 -8 0.5 -10 q-4 -3 -13 -17.5 q-9 -14.5 -17 -28.5 q-8 -14 -10 -18 q-30 -58 -59.5 -117 q-29.5 -59 -55 -109.5 q-25.5 -50.5 -42.5 -85 q-17 -34.5 -21 -42.5 q-3 -6 -15.5 -11.5 q-12.5 -5.5 -11.5 0.5 ZM138 -6 q-11 0 -21 7.5 q-10 7.5 -16 14.5 q-1 2 7.5 8.5 q8.5 6.5 19 12.5 q10.5 6 11.5 5 q8 -4 16 -8.5 q8 -4.5 17 -3.5 l4 0 q5 0 5 -3 q0 -3 -7 -10 q-9 -7 -18.5 -15 q-9.5 -8 -17.5 -8 Z" /><glyph glyph-name="quotedbl" unicode="&quot;" d="M216 428 q-9 0 -4 11 q13 33 21.5 68.5 q8.5 35.5 15.5 65.5 q0 6 10.5 14 q10.5 8 24.5 14.5 q14 6.5 24 9 q10 2.5 8 -2.5 q-11 -36 -35.5 -81 q-24.5 -45 -44.5 -82 q-9 -17 -20 -17 ZM111 428 q-9 0 -4 11 q13 33 21.5 68.5 q8.5 35.5 15.5 65.5 q0 6 10.5 14 q10.5 8 24 14.5 q13.5 6.5 24 9 q10.5 2.5 8.5 -2.5 q-12 -36 -36 -81 q-24 -45 -44 -82 q-9 -17 -20 -17 Z" /><glyph glyph-name="numbersign" unicode="#" d="M74 40 q-13 0 -12 6 q8 20 29 59.5 q21 39.5 49 88.5 q-38 -1 -73.5 -1.5 q-35.5 -0.5 -53.5 -2.5 q-3 0 3.5 9.5 q6.5 9.5 16.5 18.5 q10 9 15 8 q9 -1 41 -2 q32 -1 68 -2 q14 23 28.5 46.5 q14.5 23.5 29.5 45.5 q-40 0 -78.5 -0.5 q-38.5 -0.5 -58.5 -2.5 q-3 0 3.5 9 q6.5 9 16 18.5 q9.5 9.5 14.5 8.5 q11 -1 47 -2.5 q36 -1.5 75 -1.5 q34 51 66 93.5 q32 42.5 54 63.5 q2 2 12 -0.5 q10 -2.5 19 -5.5 q9 -3 8 -4 q-22 -21 -52.5 -60.5 q-30.5 -39.5 -63.5 -87.5 l43 0 q16 0 41 0 q25 0 54 1 q34 51 66 93 q32 42 54 64 q2 2 12.5 -0.5 q10.5 -2.5 19.5 -5.5 q9 -3 8 -4 q-22 -21 -52.5 -60 q-30.5 -39 -63.5 -87 q40 1 72.5 1.5 q32.5 0.5 43.5 0.5 q3 0 -3.5 -9 q-6.5 -9 -16 -18 q-9.5 -9 -15.5 -9 q-9 1 -38 2 q-29 1 -64 2 q-15 -22 -30 -45 q-15 -23 -29 -45 q44 0 81.5 0.5 q37.5 0.5 49.5 1.5 q3 0 -3.5 -9 q-6.5 -9 -16 -18 q-9.5 -9 -15.5 -9 q-10 1 -43.5 1.5 q-33.5 0.5 -71.5 1.5 q-29 -46 -53 -85 q-24 -39 -38 -62 q-3 -5 -14 -5 q-4 0 -8 1.5 q-4 1.5 -3 4.5 q8 23 29 62 q21 39 48 85 q-22 1 -40 1 q-18 0 -28 0 l-74 0 q-29 -46 -53.5 -86 q-24.5 -40 -38.5 -63 q-3 -5 -13 -5 ZM197 222 l142 0 q14 23 28 46 q14 23 29 46 q-25 0 -46 0.5 q-21 0.5 -32 0.5 l-60 0 q-16 -23 -31 -46.5 q-15 -23.5 -30 -46.5 Z" /><glyph glyph-name="dollar" unicode="$" d="M91 -49 q6 20 16 49 q10 29 23 64 q-34 5 -57 25.5 q-23 20.5 -23 57.5 q0 23 8.5 44 q8.5 21 30.5 34 q1 1 4 1 q4 0 5.5 -2.5 q1.5 -2.5 -0.5 -4.5 q-7 -9 -12 -22 q-4 -12 -4 -26 q0 -21 9 -38 q16 -32 48 -45 q14 39 31 82 q17 43 34 86 q-16 19 -28 43 q-12 24 -12 49 q0 19 7.5 37.5 q7.5 18.5 26.5 37.5 q17 17 39.5 27.5 q22.5 10.5 45.5 10.5 l2 0 q7 15 12 27.5 q5 12.5 9 22.5 q2 5 13.5 8.5 q11.5 3.5 9.5 -1.5 q-2 -5 -8 -20 q-6 -15 -15 -38 q22 -2 37.5 -12.5 q15.5 -10.5 15.5 -38.5 q0 -16 -5.5 -34 q-5.5 -18 -12.5 -32 q-4 -8 -13 -12 q-9 -4 -7 6 q2 8 3.5 18.5 q1.5 10.5 1.5 20.5 q0 15 -4 26 q-9 22 -27 29 q-10 -27 -22 -60 q-12 -33 -25 -69 q9 -10 17.5 -19.5 q8.5 -9.5 14.5 -17.5 q27 -36 27 -73 q0 -37 -21 -66 q-21 -29 -54.5 -46 q-33.5 -17 -69.5 -18 q-21 -59 -32 -96 q0 -1 -10 -5.5 q-10 -4.5 -19.5 -8 q-9.5 -3.5 -9.5 -1.5 ZM230 322 q12 32 23.5 60.5 q11.5 28.5 21.5 53.5 q-25 2 -47.5 -16 q-22.5 -18 -22.5 -47 q0 -3 0 -6 q0 -3 1 -6 q2 -9 8.5 -18.5 q6.5 -9.5 15.5 -20.5 ZM168 81 q7 0 13.5 0.5 q6.5 0.5 13.5 1.5 q24 5 44 27 q20 22 20 54 q0 17 -8.5 35 q-8.5 18 -27.5 37 q-14 -40 -28 -80 q-14 -40 -27 -75 Z" /><glyph glyph-name="percent" unicode="%" d="M85 -34 q-7 0 -12 2.5 q-5 2.5 -1 6.5 q37 46 88.5 107.5 q51.5 61.5 111.5 128 q60 66.5 123 131 q63 64.5 123 119 q60 54.5 110 89.5 q-38 -6 -73.5 -8.5 q-35.5 -2.5 -67.5 -2.5 q-34 0 -63 3 q-29 3 -55 8 q22 -7 22 -32 q0 -19 -10.5 -41 q-10.5 -22 -17.5 -33 q-9 -16 -28 -40 q-19 -24 -42.5 -48 q-23.5 -24 -49.5 -42 q-33 -23 -61 -23 q-25 0 -34.5 14.5 q-9.5 14.5 -9.5 33.5 q0 18 5 36 q5 18 11 30 q5 11 11.5 22.5 q6.5 11.5 13.5 21.5 q3 6 15 21.5 q12 15.5 27 34 q15 18.5 29 31.5 q14 13 22 13 q5 0 11 -2.5 q6 -2.5 5 -8.5 q0 -5 -15 -24 q-15 -19 -35.5 -45 q-20.5 -26 -39.5 -54 q-2 -4 -11.5 -20 q-9.5 -16 -17.5 -35.5 q-8 -19.5 -8 -35.5 q0 -22 23 -22 q10 0 21.5 6.5 q11.5 6.5 18.5 12.5 q28 22 55.5 56.5 q27.5 34.5 45.5 72.5 q18 38 18 67 q0 17 -7.5 30 q-7.5 13 -25.5 20 q5 5 12 8.5 q7 3.5 15 1.5 q31 -9 64.5 -12 q33.5 -3 67.5 -3 q19 0 37 0.5 q18 0.5 36 1.5 q42 2 93.5 11.5 q51.5 9.5 86.5 19.5 q11 -1 11 -10 q0 -12 -14.5 -28.5 q-14.5 -16.5 -28.5 -18.5 q-43 -29 -95 -73.5 q-52 -44.5 -109 -98 q-57 -53.5 -113 -110 q-56 -56.5 -107.5 -110 q-51.5 -53.5 -93 -99 q-41.5 -45.5 -68.5 -75.5 q-4 -6 -19 -6 ZM420 -10 q-25 0 -34.5 14.5 q-9.5 14.5 -9.5 33.5 q0 18 5 36 q5 18 11 30 q5 11 11.5 22.5 q6.5 11.5 13.5 21.5 q3 6 15 21.5 q12 15.5 27 34 q15 18.5 29 31.5 q14 13 22 13 q5 0 11.5 -2.5 q6.5 -2.5 5.5 -8.5 q0 -5 -15 -24 q-15 -19 -35.5 -45.5 q-20.5 -26.5 -39.5 -53.5 q-3 -4 -12 -20 q-9 -16 -17.5 -35.5 q-8.5 -19.5 -8.5 -35.5 q0 -22 23 -22 q10 0 21.5 6.5 q11.5 6.5 18.5 12.5 q28 21 55.5 56 q27.5 35 45.5 73 q18 38 18 67 q0 17 -7.5 30 q-7.5 13 -24.5 20 q-6 2 -6 4 q0 6 6 6 q16 0 34.5 -6.5 q18.5 -6.5 32 -19.5 q13.5 -13 13.5 -32 q0 -19 -8.5 -38.5 q-8.5 -19.5 -19.5 -37.5 q-9 -16 -28 -39.5 q-19 -23.5 -42.5 -47.5 q-23.5 -24 -48.5 -42 q-16 -10 -32 -16.5 q-16 -6.5 -30 -6.5 Z" /><glyph glyph-name="ampersand" unicode="&amp;" d="M652 -111 q-29 0 -59.5 20.5 q-30.5 20.5 -63.5 66.5 q-13 19 -27.5 43 q-14.5 24 -28.5 49 q-16 -16 -33 -30.5 q-17 -14.5 -41 -29.5 q-41 -26 -79 -37.5 q-38 -11.5 -72 -11.5 q-35 0 -63.5 12 q-28.5 12 -46.5 32 q-27 30 -27 70 q0 37 19.5 68 q19.5 31 45.5 54 q41 36 90 61.5 q49 25.5 95 52.5 l1 1 q-11 35 -11 67 q0 9 1.5 18.5 q1.5 9.5 2.5 18.5 q8 36 31.5 52.5 q23.5 16.5 47.5 16.5 q23 0 39.5 -13 q16.5 -13 16.5 -36 q0 -21 -16 -43 q-16 -22 -37.5 -41 q-21.5 -19 -40.5 -32 q8 -19 22.5 -49.5 q14.5 -30.5 30.5 -62.5 l134 0 q14 0 28.5 0.5 q14.5 0.5 21.5 6.5 q2 2 4 1 q2 -1 0 -5 l-18 -27 q-3 -7 -12 -7 q-3 0 -7 0 q-4 0 -10 1 q-12 2 -25.5 3.5 q-13.5 1.5 -27.5 2.5 q-4 -18 -13 -39 q-9 -21 -20 -38 q18 -31 36 -59.5 q18 -28.5 33 -48.5 q30 -38 56 -54 q26 -16 48 -16 q34 0 61.5 25.5 q27.5 25.5 49.5 54.5 q3 4 6 4 q5 0 5 -6 q0 -6 -4 -10 q-35 -49 -70 -77.5 q-35 -28.5 -73 -28.5 ZM392 329 q29 20 52.5 45.5 q23.5 25.5 30.5 51.5 q1 3 1 6 q0 3 0 5 q0 17 -11 25.5 q-11 8.5 -25 8.5 q-16 0 -32.5 -12.5 q-16.5 -12.5 -23.5 -41.5 q-1 -6 -1.5 -12 q-0.5 -6 -0.5 -12 q0 -19 3.5 -36.5 q3.5 -17.5 6.5 -27.5 ZM287 8 q55 0 101 18 q21 8 40.5 24 q19.5 16 35.5 35 q-9 17 -23 44 q-14 27 -30 60 q-20 -1 -46 -7 q-26 -6 -44.5 -20 q-18.5 -14 -16.5 -40 q0 -7 3.5 -17.5 q3.5 -10.5 4.5 -13.5 l-8 -6 q-7 13 -18.5 32 q-11.5 19 -12.5 28 q-1 9 0.5 22 q1.5 13 13.5 23 q13 11 36 14.5 q23 3.5 48 3.5 q8 0 16 -0.5 q8 -0.5 15 -0.5 q-9 22 -18.5 45 q-9.5 23 -18.5 46 l-9 -6 q-39 -24 -81.5 -53 q-42.5 -29 -71.5 -65 q-13 -16 -22.5 -39 q-9.5 -23 -9.5 -46 q0 -13 4.5 -26.5 q4.5 -13.5 14.5 -24.5 q17 -16 42.5 -23 q25.5 -7 54.5 -7 ZM493 124 q9 14 17 30.5 q8 16.5 13 29.5 q-16 2 -32 3 q-16 1 -33 2 q11 -19 19.5 -36 q8.5 -17 15.5 -29 Z" /><glyph glyph-name="quotesingle" unicode="&#39;" d="M111 428 q-9 0 -4 11 q13 33 21.5 68.5 q8.5 35.5 15.5 65.5 q0 6 10.5 14 q10.5 8 24 14.5 q13.5 6.5 24 9 q10.5 2.5 8.5 -2.5 q-12 -36 -36 -81 q-24 -45 -44 -82 q-9 -17 -20 -17 Z" /><glyph glyph-name="parenleft" unicode="(" d="M163 -54 q-51 0 -82.5 35.5 q-31.5 35.5 -31.5 101.5 q0 65 19 129.5 q19 64.5 50 119.5 q36 63 94.5 120 q58.5 57 129.5 102 q71 45 142 70 q28 10 55.5 16.5 q27.5 6.5 55.5 8.5 q5 1 8.5 -7 q3.5 -8 -1.5 -9 q-69 -12 -139 -45.5 q-70 -33.5 -133 -84.5 q-63 -51 -112 -115.5 q-49 -64.5 -77.5 -137.5 q-28.5 -73 -28.5 -151 q0 -26 9 -57.5 q9 -31.5 30.5 -52.5 q21.5 -21 58.5 -18 q5 1 9.5 2 q4.5 1 8.5 2 l1 0 q6 0 6 -4 q0 -11 -17 -16 q-30 -9 -55 -9 Z" /><glyph glyph-name="parenright" unicode=")" d="M-35 -45 q-4 -1 -7.5 7 q-3.5 8 0.5 9 q69 11 139 44.5 q70 33.5 133.5 84.5 q63.5 51 112.5 115.5 q49 64.5 77.5 138 q28.5 73.5 28.5 151.5 q0 27 -9 58 q-9 31 -30 52 q-21 21 -59 18 q-5 -1 -9.5 -2 q-4.5 -1 -9.5 -2 l-1 0 q-5 0 -5 4 q0 4 4.5 9 q4.5 5 12.5 7 q29 9 54 9 q52 0 83 -36.5 q31 -36.5 31 -104.5 q0 -64 -18.5 -127.5 q-18.5 -63.5 -50.5 -117.5 q-35 -63 -94 -120.5 q-59 -57.5 -129.5 -102 q-70.5 -44.5 -142.5 -69.5 q-27 -10 -55 -16.5 q-28 -6.5 -56 -8.5 Z" /><glyph glyph-name="asterisk" unicode="*" d="M254 234 l-62 0 l70 165 l-3 2 l-173 -98 l-16 51 l184 66 l0 2 l-143 67 l47 51 l113 -99 l4 2 l31 166 l62 0 l-71 -166 l3 -2 l174 100 l16 -51 l-184 -68 l-1 -2 l144 -66 l-48 -51 l-113 98 l-4 -2 l-30 -165 Z" /><glyph glyph-name="plus" unicode="+" d="M170 41 q17 32 36.5 77 q19.5 45 34.5 79 q-35 0 -78.5 -0.5 q-43.5 -0.5 -76.5 -3.5 q-3 0 3.5 9.5 q6.5 9.5 16.5 18.5 q10 9 15 8 q12 -2 35.5 -3 q23.5 -1 50 -1 q26.5 0 45.5 0 q12 30 25 64 q13 34 17 50 q2 5 16.5 11 q14.5 6 27.5 9 q13 3 12 0 q-5 -11 -15.5 -33.5 q-10.5 -22.5 -23 -49 q-12.5 -26.5 -23.5 -51.5 q29 0 61.5 0.5 q32.5 0.5 59.5 1.5 q27 1 39 1 q3 0 -3.5 -9 q-6.5 -9 -16 -18 q-9.5 -9 -15.5 -9 q-10 1 -34 2 q-24 1 -52 2 q-28 1 -51 1 l-1 -4 q-8 -19 -19 -45 q-11 -26 -19.5 -50 q-8.5 -24 -11.5 -36 q-1 -5 -15.5 -11.5 q-14.5 -6.5 -28 -9.5 q-13.5 -3 -11.5 0 Z" /><glyph glyph-name="comma" unicode="," d="M36 -80 q1 2 1.5 4 q0.5 2 6.5 7 q17 15 26.5 34 q9.5 19 9.5 29 q0 11 -6.5 20.5 q-6.5 9.5 -18.5 12.5 l4 11 q5 1 14 5.5 q9 4.5 13 7.5 q5 3 9 7.5 q4 4.5 6 4.5 q21 -3 21 -26 q0 -4 -0.5 -7.5 q-0.5 -3.5 -1.5 -8.5 q-7 -37 -25 -59 q-18 -22 -46 -42 q-15 -10 -13 0 Z" /><glyph glyph-name="hyphen" unicode="-" d="M220 144 q-12 1 -25.5 2.5 q-13.5 1.5 -33.5 1.5 q-23 0 -42.5 -0.5 q-19.5 -0.5 -42.5 -2.5 q-2 0 2 7 q4 7 10.5 14 q6.5 7 9.5 6 q11 -2 28.5 -2.5 q17.5 -0.5 36.5 -1.5 q26 0 46 1 q20 1 33 2 q2 0 -2 -7 q-4 -7 -10 -13.5 q-6 -6.5 -10 -6.5 Z" /><glyph glyph-name="period" unicode="." d="M70 -6 q-10 0 -20.5 7.5 q-10.5 7.5 -16.5 14.5 q-1 2 8 8.5 q9 6.5 19.5 12.5 q10.5 6 11.5 5 q8 -4 16 -8.5 q8 -4.5 17 -3.5 l4 0 q5 0 5 -3 q0 -3 -7 -10 q-9 -7 -18.5 -15 q-9.5 -8 -18.5 -8 Z" /><glyph glyph-name="slash" unicode="/" d="M19 -32 q-9 0 -15 1.5 q-6 1.5 -4 5.5 q44 62 99 134.5 q55 72.5 113 147.5 q58 75 113.5 143.5 q55.5 68.5 101.5 123.5 q46 55 75 86 q2 2 11 2.5 q9 0.5 20 0.5 q14 0 27 -0.5 q13 -0.5 11 -2.5 q-22 -23 -63.5 -70.5 q-41.5 -47.5 -93.5 -109.5 q-52 -62 -107.5 -129 q-55.5 -67 -107.5 -130.5 q-52 -63.5 -93 -115 q-41 -51.5 -63 -81.5 q-2 -3 -9 -4.5 q-7 -1.5 -15 -1.5 Z" /><glyph glyph-name="zero" unicode="0" d="M153 -8 q-49 0 -69 31 q-20 31 -20 77 q0 45 15.5 95.5 q15.5 50.5 40.5 95 q25 44.5 53 70.5 q17 15 36.5 30.5 q19.5 15.5 35.5 29.5 q14 11 36 16 q22 5 38 5 q45 0 64.5 -32.5 q19.5 -32.5 19.5 -79.5 q0 -43 -13.5 -92 q-13.5 -49 -37 -92.5 q-23.5 -43.5 -52.5 -70.5 q-16 -15 -33 -26.5 q-17 -11.5 -34 -28.5 q-16 -15 -40 -21.5 q-24 -6.5 -40 -6.5 ZM194 26 q34 0 65.5 31 q31.5 31 56.5 89 q17 40 27.5 80 q10.5 40 10.5 74 q0 35 -12 61 q-12 26 -38 37 q-15 6 -30 6 q-37 0 -68.5 -34.5 q-31.5 -34.5 -53.5 -87.5 q-17 -39 -27 -78.5 q-10 -39.5 -10 -74.5 q0 -33 10.5 -58 q10.5 -25 34.5 -37 q15 -8 34 -8 Z" /><glyph glyph-name="one" unicode="1" d="M125 6 q0 0 -24.5 -1.5 q-24.5 -1.5 -92.5 -6.5 l9 13 q3 -1 13 -1 q17 0 41.5 7.5 q24.5 7.5 35.5 26.5 q5 9 12.5 29.5 q7.5 20.5 16 44.5 q8.5 24 15.5 45.5 q7 21.5 11 34.5 l34 105 q14 46 14 60 q0 8 -2.5 10.5 q-2.5 2.5 -6.5 4.5 q-5 3 -18 -5 q-13 -8 -27 -19 q-10 -7 -19 -15 q-9 -8 -14 -10 q3 11 4.5 15.5 q1.5 4.5 3.5 11.5 q14 9 33.5 20 q19.5 11 43.5 26 q12 8 35 22.5 q23 14.5 40 24.5 q5 4 9 4 q3 0 3 -4 q0 -5 -3 -11 q-19 -37 -35 -82 q-16 -45 -36 -110 l-15 -49 q-8 -25 -17.5 -55.5 q-9.5 -30.5 -16.5 -57 q-7 -26.5 -9 -40.5 q-2 -16 12 -23.5 q14 -7.5 31.5 -9 q17.5 -1.5 23.5 -1.5 l-11 -12 q-5 2 -22 3.5 q-17 1.5 -37 3 q-20 1.5 -35 1.5 Z" /><glyph glyph-name="two" unicode="2" d="M21 -5 q23 20 66 58.5 q43 38.5 94 87.5 q19 18 45 42.5 q26 24.5 52 52.5 q26 28 46.5 55.5 q20.5 27.5 27.5 51.5 q4 11 4 23 q0 23 -17.5 38.5 q-17.5 15.5 -50.5 15.5 q-16 0 -34 -4 q-18 -4 -31 -12 q-10 -7 -21.5 -22.5 q-11.5 -15.5 -15.5 -29.5 q-2 -7 -5.5 -22 q-3.5 -15 -2.5 -18 l-21 -11 q4 12 9 34.5 q5 22.5 9.5 43.5 q4.5 21 4.5 27 q0 8 6.5 13 q6.5 5 11.5 7 q10 4 33.5 7.5 q23.5 3.5 42.5 4.5 l22 1 q47 2 73 -10 q20 -9 28.5 -24.5 q8.5 -15.5 8.5 -35.5 q0 -19 -6 -37 q-6 -20 -18.5 -38 q-12.5 -18 -27.5 -35 q-29 -31 -73.5 -67.5 q-44.5 -36.5 -90 -71.5 q-45.5 -35 -79.5 -61 q-18 -14 -18 -19 q0 -2 3.5 -2.5 q3.5 -0.5 7.5 -1.5 q15 -1 33 -2 q18 -1 37 -1 q31 0 59.5 3.5 q28.5 3.5 42.5 11.5 q10 6 22.5 18 q12.5 12 23.5 25.5 q11 13.5 14 20.5 l9 -3 q-1 -2 -9 -13.5 q-8 -11.5 -16.5 -26.5 q-8.5 -15 -14.5 -27 q-9 -19 -21 -30.5 q-12 -11.5 -34 -11.5 q-16 0 -42.5 1.5 q-26.5 1.5 -49.5 1.5 q-9 0 -17 0 q-8 0 -14 -1 q0 0 -26 -1.5 q-26 -1.5 -80 -5.5 Z" /><glyph glyph-name="three" unicode="3" d="M135 -9 q-23 0 -50.5 3.5 q-27.5 3.5 -41.5 11.5 q-4 2 -8 7.5 q-4 5.5 0 12.5 q3 6 8 21 q5 15 10 32 q5 17 8 28 l22 9 q-2 -3 -6.5 -17 q-4.5 -14 -6.5 -22 q-1 -3 -1 -6 q0 -3 0 -6 q0 -28 13 -39 q8 -8 23 -12 q15 -4 31 -4 q43 0 73.5 18.5 q30.5 18.5 50 46.5 q19.5 28 28.5 58 q6 20 6 34 q0 30 -20.5 43.5 q-20.5 13.5 -50.5 17 q-30 3.5 -61 3.5 q5 6 9 11 q4 5 4 5 q7 2 10 2 q3 0 8 1 q22 5 51.5 14.5 q29.5 9.5 55 28 q25.5 18.5 35.5 50.5 q4 11 4 23 q0 23 -17.5 38.5 q-17.5 15.5 -50.5 15.5 q-16 0 -34 -4 q-18 -4 -30 -12 q-11 -7 -22.5 -22.5 q-11.5 -15.5 -15.5 -29.5 q-2 -7 -5.5 -22 q-3.5 -15 -2.5 -18 l-21 -11 q4 12 9 34.5 q5 22.5 9.5 43.5 q4.5 21 4.5 27 q0 8 6.5 13 q6.5 5 11.5 7 q10 4 33.5 7.5 q23.5 3.5 42.5 4.5 l22 1 q47 2 73 -10 q19 -9 27 -23.5 q8 -14.5 8 -30.5 q0 -7 -1 -13 q-1 -6 -3 -12 q-10 -33 -40.5 -58.5 q-30.5 -25.5 -75.5 -40.5 q-14 -4 -14 -7 q0 -2 6 -3 q6 -1 12 -2 q23 -2 41.5 -11 q18.5 -9 26.5 -29 q4 -9 4 -23 q0 -19 -7.5 -42 q-7.5 -23 -17.5 -42.5 q-10 -19.5 -19 -30.5 q-25 -31 -64 -50.5 q-39 -19.5 -100 -19.5 Z" /><glyph glyph-name="four" unicode="4" d="M237 6 q0 0 -24 -1.5 q-24 -1.5 -92 -6.5 l9 13 q3 -1 12 -1 q17 0 41.5 7.5 q24.5 7.5 35.5 26.5 q6 11 15 35 q9 24 18 50 l-57 0 q0 0 -40 -1.5 q-40 -1.5 -94 -4.5 l-7 0 q-8 0 -8 2 q0 3 11 10 q17 11 41 37 q24 26 45 48 l117 123 q29 31 45.5 52 q16.5 21 27.5 25 q17 5 38.5 16 q21.5 11 30.5 11 q8 0 3 -9 q-19 -37 -35 -82 q-16 -45 -37 -110 l-15 -49 q-5 -16 -11 -33 q17 2 30.5 4.5 q13.5 2.5 20.5 6.5 q11 6 25 18 q14 12 25.5 25 q11.5 13 14.5 20 l10 -3 q-1 -2 -9.5 -13.5 q-8.5 -11.5 -17.5 -26 q-9 -14.5 -15 -26.5 q-10 -19 -22.5 -30.5 q-12.5 -11.5 -34.5 -11.5 q-8 0 -17.5 0.5 q-9.5 0.5 -19.5 0.5 q-7 -26 -13.5 -49 q-6.5 -23 -8.5 -35 q-2 -16 12 -23.5 q14 -7.5 31.5 -9 q17.5 -1.5 24.5 -1.5 l-12 -12 q-5 2 -22 3.5 q-17 1.5 -37 3 q-20 1.5 -35 1.5 ZM221 160 q11 0 21 0 q10 0 20 1 q4 11 7.5 20.5 q3.5 9.5 4.5 16.5 l34 105 q8 22 12.5 40.5 q4.5 18.5 4.5 28.5 q0 8 -3 11 q-8 -5 -26.5 -23.5 q-18.5 -18.5 -42.5 -43.5 q-24 -25 -48.5 -51.5 q-24.5 -26.5 -45 -49 q-20.5 -22.5 -31.5 -34.5 q-7 -7 -7 -12 q0 -4 12 -6 q17 -1 40 -2 q23 -1 48 -1 Z" /><glyph glyph-name="five" unicode="5" d="M135 -9 q-23 0 -50 3.5 q-27 3.5 -42 11.5 q-4 2 -8 7.5 q-4 5.5 0 12.5 q3 6 8 21 q5 15 10 32 q5 17 8 28 l22 9 q-2 -3 -6.5 -17 q-4.5 -14 -6.5 -22 q-1 -3 -1 -6 q0 -3 0 -6 q0 -28 13 -39 q8 -8 23 -12 q15 -4 31 -4 q39 0 69.5 17.5 q30.5 17.5 51.5 45 q21 27.5 30 57.5 q8 24 8 45 q0 25 -13 41 q-10 12 -26 18 q-16 6 -36 6 q-22 0 -47 -3.5 q-25 -3.5 -47 -11.5 q-3 -1 -5 -1.5 q-2 -0.5 -4 -0.5 q-2 0 -2 1 q0 2 3 6.5 q3 4.5 7 12.5 q11 22 21 46 q10 24 18.5 44 q8.5 20 11.5 28 q3 7 8 20.5 q5 13.5 10.5 26.5 q5.5 13 6.5 17 q4 10 12 10 l206 0 q8 0 3.5 -11 q-4.5 -11 -12.5 -25 q-8 -14 -13 -24 q0 0 -4 -9.5 q-4 -9.5 -9 -22 q-5 -12.5 -10 -21.5 l-14 3 q9 14 16 29.5 q7 15.5 7 15.5 q5 8 5 14 q0 6 -7 10.5 q-7 4.5 -26 4.5 q-9 0 -32.5 0 q-23.5 0 -47.5 -0.5 q-24 -0.5 -35 -1.5 q-19 -2 -26 -14 q-9 -17 -22.5 -45 q-13.5 -28 -26 -54 q-12.5 -26 -17.5 -37 q17 9 45 14 q28 5 46 5 q111 0 111 -77 q0 -22 -9 -51 q-22 -73 -78 -110 q-56 -37 -128 -37 Z" /><glyph glyph-name="six" unicode="6" d="M159 -4 q-55 0 -76 29 q-21 29 -21 71 q0 28 7 58.5 q7 30.5 17 58.5 q21 57 56.5 110.5 q35.5 53.5 86 88 q50.5 34.5 115.5 34.5 q18 0 34.5 -2.5 q16.5 -2.5 29.5 -9.5 q4 -1 7.5 -5.5 q3.5 -4.5 -0.5 -10.5 q-4 -8 -12 -32.5 q-8 -24.5 -12 -39.5 l-18 -8 q2 3 6 15 q4 12 6 19 q1 3 1 6 q0 3 0 6 q0 22 -10 32 q-7 7 -17.5 9.5 q-10.5 2.5 -22.5 2.5 q-35 0 -68.5 -21 q-33.5 -21 -59.5 -52.5 q-26 -31.5 -41 -62.5 q-8 -16 -15.5 -34.5 q-7.5 -18.5 -11.5 -34.5 q16 12 32.5 20 q16.5 8 28.5 16 q11 7 31.5 10 q20.5 3 35.5 3 q49 0 70 -26.5 q21 -26.5 21 -62.5 q0 -37 -19.5 -75.5 q-19.5 -38.5 -51.5 -60.5 q-14 -9 -28 -16 q-14 -7 -30 -18 q-13 -9 -35 -13 q-22 -4 -36 -4 ZM194 22 q23 0 45 11 q37 20 52.5 56 q15.5 36 15.5 69 q0 15 -3 28 q-5 26 -23.5 42 q-18.5 16 -45.5 16 q-19 0 -40 -9 q-43 -19 -63 -63 q-9 -19 -14.5 -37.5 q-5.5 -18.5 -5.5 -36.5 q0 -25 12 -44.5 q12 -19.5 40 -27.5 q13 -4 30 -4 Z" /><glyph glyph-name="seven" unicode="7" d="M109 0 q-6 2 -12 2 q-6 0 -11 0 q-14 0 -24.5 -1.5 q-10.5 -1.5 -11.5 1.5 q1 6 23 33 q22 27 56.5 67.5 q34.5 40.5 73 85.5 q38.5 45 73 86 q34.5 41 57 70.5 q22.5 29.5 23.5 38.5 l0 2 q0 10 -17 12 q-10 1 -34.5 1.5 q-24.5 0.5 -48.5 0.5 q-24 0 -33 0 q-28 0 -39 -7 q-11 -7 -17 -18 q0 0 -9 -15.5 q-9 -15.5 -13 -29.5 l-18 -3 q5 9 11 20.5 q6 11.5 11 20 q5 8.5 5 8.5 q6 10 11.5 24 q5.5 14 12.5 25 q7 11 15 11 q3 0 26 0 q23 0 56 -0.5 q33 -0.5 67 -1 q34 -0.5 59 -0.5 q8 0 18.5 2.5 q10.5 2.5 17 3 q6.5 0.5 -0.5 -7.5 q-14 -16 -43 -50 q-29 -34 -65.5 -77.5 q-36.5 -43.5 -74 -90.5 q-37.5 -47 -69.5 -90 q-32 -43 -52.5 -75.5 q-20.5 -32.5 -22.5 -47.5 Z" /><glyph glyph-name="eight" unicode="8" d="M130 -9 q-34 0 -62 15.5 q-28 15.5 -28 48.5 q0 13 4 25 q10 32 32.5 57 q22.5 25 50.5 44.5 q28 19.5 55 34.5 q-22 15 -35 32 q-13 17 -13 42 q0 8 2 17.5 q2 9.5 5 19.5 q11 35 37 62.5 q26 27.5 59 43.5 q33 16 65 16 q35 0 57 -14.5 q22 -14.5 22 -46.5 q0 -7 -1 -14.5 q-1 -7.5 -4 -16.5 q-8 -24 -28 -46 q-20 -22 -44.5 -40 q-24.5 -18 -47.5 -32 q24 -18 41.5 -37.5 q17.5 -19.5 17.5 -49.5 q0 -15 -6 -35 q-12 -39 -40.5 -67 q-28.5 -28 -65 -43.5 q-36.5 -15.5 -73.5 -15.5 ZM242 249 q19 12 40.5 30.5 q21.5 18.5 39.5 40 q18 21.5 24 41.5 q4 11 4 23 q0 23 -15 36 q-15 13 -39 13 q-35 0 -63 -22.5 q-28 -22.5 -39 -58.5 q-4 -12 -4 -26 q0 -27 16.5 -45 q16.5 -18 35.5 -32 ZM133 10 q38 0 70 22 q32 22 45 61 q3 9 4 17 q1 8 1 15 q0 29 -16.5 47 q-16.5 18 -39.5 34 q-35 -22 -66.5 -51 q-31.5 -29 -43.5 -67 q-3 -8 -4 -16 q-1 -8 -1 -15 q0 -21 12.5 -34 q12.5 -13 38.5 -13 Z" /><glyph glyph-name="nine" unicode="9" d="M115 -4 q-18 0 -34 2.5 q-16 2.5 -30 9.5 q-3 2 -6.5 6 q-3.5 4 0.5 11 q4 8 12 32 q8 24 12 39 l18 8 q-2 -2 -6 -14 q-4 -12 -6 -20 q-1 -3 -1 -6 q0 -3 0 -6 q0 -21 10 -31 q8 -7 18 -9.5 q10 -2.5 22 -2.5 q36 0 68.5 21 q32.5 21 59 52.5 q26.5 31.5 41.5 62.5 q8 17 15.5 34.5 q7.5 17.5 11.5 33.5 q-16 -11 -32.5 -19 q-16.5 -8 -28.5 -16 q-11 -7 -32 -10 q-21 -3 -36 -3 q-49 0 -70 26 q-21 26 -21 62 q0 37 20 75.5 q20 38.5 52 60.5 q14 10 28 17 q14 7 29 17 q14 9 35.5 13 q21.5 4 36.5 4 q55 0 76 -28.5 q21 -28.5 21 -70.5 q0 -27 -7 -57.5 q-7 -30.5 -18 -59.5 q-15 -42 -39 -83.5 q-24 -41.5 -56 -75.5 q-32 -34 -73 -54.5 q-41 -20.5 -90 -20.5 ZM227 200 q32 0 59 20 q27 20 42 50 q9 19 14.5 38 q5.5 19 5.5 36 q0 25 -12 44.5 q-12 19.5 -40 27.5 q-17 5 -31 5 q-29 0 -55 -18 q-26 -18 -43 -53 q-9 -19 -14.5 -38 q-5.5 -19 -5.5 -36 q0 -25 13 -45 q13 -20 43 -28 q12 -3 24 -3 Z" /><glyph glyph-name="colon" unicode=":" d="M167 246 q-10 0 -20 7 q-10 7 -16 14 q-1 2 8 8.5 q9 6.5 19 13 q10 6.5 11 5.5 q8 -4 16 -8.5 q8 -4.5 17 -3.5 l4 0 q5 0 5 -3 q0 -3 -7 -10 q-9 -7 -18.5 -15 q-9.5 -8 -18.5 -8 ZM95 -5 q-11 1 -20.5 8 q-9.5 7 -15.5 14 q-1 2 7.5 8.5 q8.5 6.5 19 13 q10.5 6.5 11.5 5.5 q8 -4 16 -8.5 q8 -4.5 17 -3.5 l3 0 q6 0 6 -3 q0 -4 -7 -10 q-9 -8 -19 -16 q-10 -8 -18 -8 Z" /><glyph glyph-name="semicolon" unicode=";" d="M181 246 q-11 0 -21 7 q-10 7 -16 14 q-1 2 8 8.5 q9 6.5 19 13 q10 6.5 12 5.5 q8 -4 16 -8.5 q8 -4.5 17 -3.5 l4 0 q5 0 5 -3 q0 -3 -7 -10 q-9 -7 -19 -15 q-10 -8 -18 -8 ZM51 -108 q-5 -4 -9.5 -6 q-4.5 -2 -4.5 -2 l2 8 q1 2 1.5 4 q0.5 2 6.5 7 q17 14 29.5 32.5 q12.5 18.5 16.5 40.5 q2 12 -5 22 q-7 10 -20 13 l4 11 q5 1 14 5.5 q9 4.5 13 7.5 q4 3 8 7.5 q4 4.5 7 4.5 q11 -1 16 -8.5 q5 -7.5 5 -18.5 q0 -4 -0.5 -7.5 q-0.5 -3.5 -1.5 -7.5 q-8 -37 -30.5 -65 q-22.5 -28 -51.5 -48 Z" /><glyph glyph-name="less" unicode="&lt;" d="M237 52 q1 10 -3.5 17 q-4.5 7 -9.5 13 q-25 35 -63 67.5 q-38 32.5 -73 50.5 l5 17 q61 33 119 71.5 q58 38.5 114 80.5 q0 -12 -6 -23 q-9 -11 -31 -28.5 q-22 -17.5 -48.5 -36 q-26.5 -18.5 -50 -34 q-23.5 -15.5 -35.5 -22.5 q-6 -4 -2 -8 q19 -13 41.5 -30.5 q22.5 -17.5 40.5 -36.5 q4 -4 14 -14 q10 -10 18.5 -22 q8.5 -12 8.5 -22 q0 -6 -4 -10 q-1 -2 -14 -13.5 q-13 -11.5 -15 -16.5 l-6 0 Z" /><glyph glyph-name="equal" unicode="=" d="M347 245 q-19 2 -52.5 3.5 q-33.5 1.5 -63.5 1.5 q-36 0 -73 -0.5 q-37 -0.5 -72 -3.5 q-3 0 3.5 9 q6.5 9 16.5 18.5 q10 9.5 15 8.5 q17 -3 50 -3.5 q33 -0.5 62 -1.5 q41 0 84 1.5 q43 1.5 65 2.5 q3 0 -3.5 -9 q-6.5 -9 -16 -18 q-9.5 -9 -15.5 -9 ZM322 124 q-19 2 -52.5 3.5 q-33.5 1.5 -63.5 1.5 q-36 0 -73 -0.5 q-37 -0.5 -72 -3.5 q-3 0 3.5 9.5 q6.5 9.5 16.5 18.5 q10 9 15 8 q17 -2 50 -3 q33 -1 62 -1 q41 0 84 1 q43 1 65 2 q3 0 -3.5 -9 q-6.5 -9 -16 -18 q-9.5 -9 -15.5 -9 Z" /><glyph glyph-name="greater" unicode="&gt;" d="M80 52 q0 5 -7.5 16.5 q-7.5 11.5 -9.5 13.5 q-4 9 10 23 q14 14 32 27 q18 13 25 18 q26 19 56 36.5 q30 17.5 54 30.5 q6 4 1 8 q-9 7 -25.5 22.5 q-16.5 15.5 -35.5 34 q-19 18.5 -33.5 36 q-14.5 17.5 -18.5 28.5 l0 4 q0 5 1.5 10 q1.5 5 2.5 9 q38 -42 80 -80.5 q42 -38.5 88 -71.5 l-2 -17 q-28 -12 -61.5 -31 q-33.5 -19 -66 -41.5 q-32.5 -22.5 -58.5 -45.5 q-7 -6 -15 -13 q-8 -7 -11 -17 l-6 0 Z" /><glyph glyph-name="question" unicode="?" d="M180 115 q-25 27 -25 65 q0 26 17.5 51 q17.5 25 37.5 41 l166 132 q20 17 30 37 q10 20 10 39 q0 19 -9.5 35 q-9.5 16 -28.5 24 q-15 7 -39 7 q-21 0 -42.5 -6 q-21.5 -6 -37.5 -17 q-9 -6 -20.5 -22.5 q-11.5 -16.5 -21 -35.5 q-9.5 -19 -13.5 -36 q0 -9 -10.5 -14 q-10.5 -5 -9.5 5 q4 15 8 35 q4 20 7 39 q3 19 3 28 q0 11 8 18 q8 7 14 10 q12 6 41 11.5 q29 5.5 52 6.5 l28 2 q8 1 14.5 1 q6.5 0 13.5 0 q51 0 79 -19.5 q28 -19.5 28 -61.5 q0 -5 0 -11.5 q0 -6.5 -2 -13.5 q-7 -40 -30.5 -66 q-23.5 -26 -55.5 -43.5 q-32 -17.5 -66.5 -33.5 q-34.5 -16 -65 -36 q-30.5 -20 -50.5 -50 q-13 -21 -21 -40.5 q-8 -19.5 -8 -35.5 q0 -19 10 -30 l-11 -15 ZM138 -6 q-11 0 -21 7.5 q-10 7.5 -16 14.5 q-1 2 7.5 8.5 q8.5 6.5 19 12.5 q10.5 6 11.5 5 q8 -4 16 -8.5 q8 -4.5 17 -3.5 l4 0 q5 0 5 -3 q0 -3 -7 -10 q-9 -7 -18.5 -15 q-9.5 -8 -17.5 -8 Z" /><glyph glyph-name="at" unicode="@" d="M313 -113 q-46 0 -90.5 10.5 q-44.5 10.5 -80.5 34 q-36 23.5 -57 61.5 q-21 38 -21 93 q1 80 34 143.5 q33 63.5 88.5 108.5 q55.5 45 125.5 68.5 q70 23.5 144 23.5 q52 0 102 -10.5 q50 -10.5 89 -33 q39 -22.5 61 -58 q22 -35.5 19 -85.5 q-5 -79 -51.5 -128.5 q-46.5 -49.5 -119.5 -72.5 q-73 -23 -158 -23 q-24 0 -24 20 q0 13 7 31 q7 18 16 36 q9 18 16 29 q-17 -19 -35.5 -36.5 q-18.5 -17.5 -38.5 -33.5 q-19 -16 -41.5 -30 q-22.5 -14 -48.5 -14 q-10 0 -14 6 q-4 6 -4 15 l0 8 q5 39 25.5 80.5 q20.5 41.5 49.5 78.5 q29 37 59 61 q17 12 36 19 q19 7 39 7 l115 -1 q5 0 5 -4 q0 -8 -9 -8 q-11 0 -21 -12 q-10 -12 -15 -20 q-7 -12 -21.5 -37 q-14.5 -25 -30 -55 q-15.5 -30 -26.5 -56.5 q-11 -26.5 -11 -41.5 q0 -9 9.5 -14 q9.5 -5 24.5 -5 q26 0 61 12.5 q35 12.5 69.5 38.5 q34.5 26 57 65 q22.5 39 22.5 93 q0 57 -29.5 91 q-29.5 34 -76.5 49.5 q-47 15.5 -99 15.5 q-65 0 -126.5 -24 q-61.5 -24 -111.5 -67 q-50 -43 -79.5 -101.5 q-29.5 -58.5 -30.5 -128.5 q0 -54 26 -95.5 q26 -41.5 70.5 -65 q44.5 -23.5 99.5 -23.5 q77 0 145 25 q68 25 120 81 q11 11 19 11 q9 0 9 -13 q0 -6 -4 -14 q-4 -8 -12 -16 q-61 -55 -126.5 -72 q-65.5 -17 -150.5 -17 ZM290 54 q12 0 33.5 17.5 q21.5 17.5 46.5 44.5 q25 27 47 56.5 q22 29.5 36.5 54 q14.5 24.5 14.5 37.5 q0 11 -7 15 q-7 4 -17 4 q-16 0 -34 -12 q-18 -12 -29 -23 q-12 -11 -28.5 -34.5 q-16.5 -23.5 -33 -51.5 q-16.5 -28 -27.5 -54 q-11 -26 -11 -42 q0 -12 9 -12 Z" /><glyph glyph-name="A" unicode="A" d="M87 -25 q-31 0 -50.5 18 q-19.5 18 -15.5 54 q1 13 6.5 27.5 q5.5 14.5 12.5 28.5 q6 14 12 14 q5 0 1 -8 q-13 -27 -13 -48 q0 -22 15.5 -33 q15.5 -11 40.5 -11 q49 0 108 31.5 q59 31.5 122 81 q63 49.5 121 103.5 q-39 2 -73 4 q-34 2 -60 2 q-22 0 -53 -4 q-31 -4 -48 -21 q-7 -7 -12.5 -20.5 q-5.5 -13.5 -5.5 -27.5 q0 -4 0.5 -7.5 q0.5 -3.5 1.5 -7.5 q-4 2 -14.5 3.5 q-10.5 1.5 -13.5 12.5 q-1 3 -1 10 q0 16 12 26.5 q12 10.5 29 18.5 q17 8 31 14 q33 14 68 23 q35 9 71 9 q41 0 102 -3 q47 46 87 87 q40 41 65 68 q35 37 74.5 63.5 q39.5 26.5 80.5 37.5 l-55 0 q-35 0 -76 -3 q-41 -3 -77 -13 q-36 -10 -60 -30 q-15 -13 -22.5 -29.5 q-7.5 -16.5 -7.5 -30.5 q0 -19 11 -26 q1 0 1 -0.5 q0 -0.5 0 -0.5 q0 -3 -7 -6.5 q-7 -3.5 -10 -1.5 q-10 7 -17.5 28.5 q-7.5 21.5 -5.5 34.5 q5 31 27.5 50.5 q22.5 19.5 56 30.5 q33.5 11 71 15 q37.5 4 72 5 q34.5 1 58.5 1 l109 0 q2 0 1 -1 q25 11 52.5 22 q27.5 11 47.5 11 q5 0 10.5 -3 q5.5 -3 5.5 -6 q0 -5 -20 -5 q-10 0 -20.5 -3.5 q-10.5 -3.5 -27.5 -21.5 q-14 -14 -35 -45 q-21 -31 -46 -72.5 q-25 -41.5 -50 -88 q-25 -46.5 -48 -91.5 q-23 -45 -40 -83 q-2 -6 -11 -27.5 q-9 -21.5 -17 -47 q-8 -25.5 -8 -45.5 q0 -27 19 -27 q9 0 18 4 q13 5 27 15 q14 10 27 23 q26 25 44 48.5 q18 23.5 22 28.5 q3 5 7 5 q4 0 4 -5 q0 -3 -3 -8 q-7 -10 -26 -34.5 q-19 -24.5 -44.5 -49.5 q-25.5 -25 -54.5 -38 q-9 -4 -19 -6.5 q-10 -2.5 -20 -2.5 q-20 0 -36.5 14 q-16.5 14 -16.5 46 q0 29 11.5 62.5 q11.5 33.5 21.5 54.5 q20 43 47.5 96 q27.5 53 57 106 q29.5 53 54.5 96 q25 43 41 64 q-16 0 -43 -12.5 q-27 -12.5 -57.5 -33 q-30.5 -20.5 -56.5 -47.5 q-31 -32 -71.5 -78 q-40.5 -46 -87.5 -96 q23 -1 46 -1.5 q23 -0.5 46 -0.5 q16 0 35.5 3.5 q19.5 3.5 36.5 11.5 q0 0 -5.5 -10.5 q-5.5 -10.5 -18 -21 q-12.5 -10.5 -33.5 -12.5 q-19 -1 -38 -1.5 q-19 -0.5 -38 -0.5 q-16 0 -31.5 0 q-15.5 0 -30.5 1 q-46 -48 -96 -93.5 q-50 -45.5 -101 -82.5 q-51 -37 -101.5 -58.5 q-50.5 -21.5 -98.5 -21.5 Z" /><glyph glyph-name="B" unicode="B" d="M11 -19 q-7 0 -11 3.5 q-4 3.5 0 5.5 q22 4 38 16.5 q16 12.5 26 31.5 q21 35 41 70.5 q20 35.5 39 71.5 l96 177 q23 41 40.5 79 q17.5 38 27.5 55 q7 13 24.5 23.5 q17.5 10.5 34.5 16.5 q-6 0 -12 0.5 q-6 0.5 -13 0.5 q-31 0 -67.5 -3.5 q-36.5 -3.5 -71 -10.5 q-34.5 -7 -60.5 -19 q-26 -12 -35 -29 q-4 -9 -7 -18 q-3 -9 -3 -18 q0 -23 16 -33 q1 0 1 -2 q0 -2 -3.5 -4 q-3.5 -2 -6.5 -1 q-9 5 -22 24.5 q-13 19.5 -16 32.5 q-3 12 -3 22 q0 26 17 40.5 q17 14.5 43 21 q26 6.5 53.5 8 q27.5 1.5 48.5 1.5 q32 0 76 0.5 q44 0.5 81 0.5 q9 0 20 0.5 q11 0.5 23 0.5 q27 0 56 -3 q29 -3 53 -13 q24 -10 37 -31 q13 -22 13 -48 q0 -25 -10 -50 q-10 -25 -24 -43 q-9 -11 -21 -22 q-12 -11 -27 -21 q-15 -10 -32.5 -18.5 q-17.5 -8.5 -41.5 -13.5 q-1 0 -1.5 -3 q-0.5 -3 1.5 -3 q5 -1 17.5 -2.5 q12.5 -1.5 22.5 -3.5 q35 -7 58.5 -29.5 q23.5 -22.5 23.5 -60.5 q0 -43 -22.5 -79 q-22.5 -36 -57.5 -61.5 q-35 -25.5 -73 -39.5 q-48 -18 -110 -18 q-37 0 -77 7 q-40 7 -73 24 q-7 4 -14 6.5 q-7 2.5 -15 2.5 q-14 0 -30 -8 q-10 -4 -26 -15 q-16 -11 -36 -18 q-2 -1 -6 -1 ZM256 -3 q26 0 52 5.5 q26 5.5 47 13.5 q37 14 68 39.5 q31 25.5 50.5 61 q19.5 35.5 19.5 79.5 q0 29 -15 44.5 q-15 15.5 -38 21.5 q-23 6 -48 6 q-19 0 -36 -2 q-17 -2 -31 -5 q-28 -5 -50 -11 q-4 2 1 7.5 q5 5.5 13.5 12.5 q8.5 7 13.5 11 q2 2 8.5 6.5 q6.5 4.5 10.5 4.5 q49 0 87.5 6 q38.5 6 66.5 29.5 q28 23.5 46 73.5 q9 26 9 51 q0 29 -14 50.5 q-14 21.5 -45 25.5 q-4 1 -9 1 q-5 0 -10 0 q-19 0 -41.5 -5 q-22.5 -5 -33.5 -19 q-25 -33 -48 -74.5 q-23 -41.5 -44 -84 q-21 -42.5 -40 -79.5 q-23 -45 -47 -91 q-24 -46 -47 -93 q-6 -12 -6 -23 q0 -20 25 -39 q17 -13 39.5 -18.5 q22.5 -5.5 45.5 -5.5 Z" /><glyph glyph-name="C" unicode="C" d="M248 -29 q-53 0 -101.5 15.5 q-48.5 15.5 -78.5 51.5 q-30 36 -30 97 q0 65 25 127 q25 62 67 115.5 q42 53.5 94 92.5 q46 35 106.5 57 q60.5 22 120.5 22 q25 0 47 -3.5 q22 -3.5 45 -14.5 q20 -9 32 -22.5 q12 -13.5 12 -30.5 q0 -2 0 -5 q0 -3 -1 -5 q-4 -16 -18.5 -36.5 q-14.5 -20.5 -22.5 -42.5 q-1 -4 -11 -6.5 q-10 -2.5 -8 1.5 q8 13 12.5 32 q4.5 19 4.5 38 q0 14 -2.5 26.5 q-2.5 12.5 -8.5 21.5 q-10 18 -31 25 q-21 7 -45 7 q-23 0 -46 -5 q-23 -5 -40 -11 q-58 -21 -111 -66 q-47 -41 -83.5 -95 q-36.5 -54 -57.5 -111 q-21 -57 -21 -109 q0 -53 23 -84 q23 -31 60 -44 q37 -13 80 -13 q38 0 75.5 8 q37.5 8 68.5 20 q53 20 95.5 49 q42.5 29 79.5 75 q5 5 7 5 q3 0 3 -4 q0 -8 -8 -19 q-34 -46 -77 -77 q-43 -31 -92 -51 q-33 -13 -76.5 -22 q-43.5 -9 -87.5 -9 Z" /><glyph glyph-name="D" unicode="D" d="M10 -19 q-2 0 -7 1.5 q-5 1.5 -5 4.5 q0 1 1 2 q1 1 1 1 q7 2 6.5 2 q-0.5 0 -0.5 -0.5 q0 -0.5 7 1.5 q17 6 29.5 17.5 q12.5 11.5 21.5 27.5 q47 78 90 158.5 q43 80.5 86 160.5 q12 21 23 43 q11 22 22 44 q5 12 10.5 24 q5.5 12 12.5 23 q8 14 25.5 24.5 q17.5 10.5 33.5 15.5 l-24 0 q-20 0 -54.5 -2.5 q-34.5 -2.5 -72.5 -8.5 q-38 -6 -67.5 -18 q-29.5 -12 -40.5 -32 q-10 -18 -10 -35 q0 -20 9 -27 q9 -7 9 -9 q0 -2 -3 -4 q-3 -2 -5 -2 q-6 0 -15 12 q-9 12 -16.5 26.5 q-7.5 14.5 -9.5 19.5 q-3 11 -3 22 q0 27 18.5 41.5 q18.5 14.5 45.5 20.5 q27 6 54.5 7.5 q27.5 1.5 45.5 1.5 q50 0 100 2.5 q50 2.5 99 2.5 q47 0 92.5 -6.5 q45.5 -6.5 82.5 -25.5 q37 -19 59.5 -54 q22.5 -35 22.5 -92 q0 -52 -19.5 -106.5 q-19.5 -54.5 -48.5 -97.5 q-122 -183 -342 -183 q-34 0 -69.5 7 q-35.5 7 -66.5 23 q-7 4 -14.5 6.5 q-7.5 2.5 -15.5 2.5 q-17 0 -34 -10.5 q-17 -10.5 -33 -21 q-16 -10.5 -31 -10.5 ZM262 -2 q75 0 140 29 q65 29 114 81.5 q49 52.5 77 120.5 q13 32 21.5 67 q8.5 35 8.5 69 q0 78 -47.5 120.5 q-47.5 42.5 -124.5 42.5 q-19 0 -39.5 -4 q-20.5 -4 -33.5 -19 q-13 -16 -24.5 -35 q-11.5 -19 -22.5 -37 q-23 -40 -43.5 -82.5 q-20.5 -42.5 -41.5 -83.5 q-33 -63 -65 -127 q-7 -14 -14.5 -28.5 q-7.5 -14.5 -14.5 -28.5 q-2 -5 -4 -10.5 q-2 -5.5 -2 -12.5 q0 -13 8 -22 q8 -9 17 -17 q19 -14 44 -18.5 q25 -4.5 47 -4.5 Z" /><glyph glyph-name="E" unicode="E" d="M234 -12 q-32 0 -65 1.5 q-33 1.5 -65 5.5 q-71 6 -71 46 q0 20 16 48 q38 69 78 137.5 q40 68.5 79 137.5 q12 22 31 55 q19 33 38 63 q9 14 26 28.5 q17 14.5 35 18.5 q-21 -1 -53.5 -3 q-32.5 -2 -66 -7.5 q-33.5 -5.5 -60 -17 q-26.5 -11.5 -37.5 -31.5 q-4 -9 -7 -18 q-3 -9 -3 -18 q0 -23 16 -33 q1 0 1 -2 q0 -2 -3.5 -4 q-3.5 -2 -6.5 -1 q-9 5 -22 24.5 q-13 19.5 -16 32.5 q-3 12 -3 22 q0 26 17 40.5 q17 14.5 43 21 q26 6.5 53 8 q27 1.5 48 1.5 q53 0 106 1.5 q53 1.5 105 1.5 q23 0 45.5 0 q22.5 0 44.5 -2 q25 -1 34.5 -10 q9.5 -9 9.5 -22 q0 -16 -10.5 -36.5 q-10.5 -20.5 -19.5 -37.5 q-4 -8 -13 -11.5 q-9 -3.5 -7 5.5 q5 20 5 40 q0 18 -6.5 32.5 q-6.5 14.5 -24.5 20.5 q-17 5 -53 5 q-13 0 -26.5 -0.5 q-13.5 -0.5 -27.5 -1.5 q-40 -3 -54 -21 q-33 -46 -63.5 -99.5 q-30.5 -53.5 -58.5 -101.5 q-1 -2 -1 -5 q0 -6 9 -6 q35 0 75.5 -1 q40.5 -1 71.5 0 q7 1 21.5 2 q14.5 1 30 4 q15.5 3 23.5 7 q5 3 6 3 q6 0 0.5 -11.5 q-5.5 -11.5 -18 -23 q-12.5 -11.5 -28.5 -11.5 q-49 0 -82.5 2 q-33.5 2 -74.5 2 q-10 0 -21 0 q-11 0 -24 -1 q-10 -1 -14 -8 q-10 -18 -17.5 -33 q-7.5 -15 -18.5 -35 q-8 -15 -19.5 -38.5 q-11.5 -23.5 -20.5 -48 q-9 -24.5 -9 -42.5 q0 -31 29 -42.5 q29 -11.5 71 -12.5 q58 0 114.5 11.5 q56.5 11.5 106 39 q49.5 27.5 86.5 74.5 q2 2 3 2 q3 0 4 -5.5 q1 -5.5 -1 -8.5 q-31 -38 -60 -73.5 q-29 -35.5 -58 -44.5 q-21 -6 -68 -10.5 q-47 -4.5 -104 -4.5 Z" /><glyph glyph-name="F" unicode="F" d="M141 -38 q-31 0 -59 17.5 q-28 17.5 -42 53.5 q-5 13 -6.5 28 q-1.5 15 -1.5 29 l0 13 q0 7 1.5 13 q1.5 6 7.5 6 q2 0 2 -2 q0 -6 -0.5 -12 q-0.5 -6 -0.5 -12 q0 -47 23.5 -71.5 q23.5 -24.5 58.5 -24.5 q35 0 68 20.5 q33 20.5 61 51.5 q16 17 36.5 51.5 q20.5 34.5 43 78 q22.5 43.5 45.5 90 q23 46.5 44 90 q21 43.5 38 76.5 q16 31 43 49 q27 18 46 25 q-7 0 -29.5 -1 q-22.5 -1 -47.5 -2 q-25 -1 -40 -2 q-38 -2 -77 -9 q-39 -7 -69 -19 q-30 -12 -43 -31 q-9 -13 -9 -30 q0 -34 30 -49 q2 -2 2 -2 q0 -3 -5 -5.5 q-5 -2.5 -10 -1.5 q-8 5 -19.5 16.5 q-11.5 11.5 -21 24.5 q-9.5 13 -12.5 22 q-5 15 -5 24 q0 24 18 39.5 q18 15.5 47 24 q29 8.5 62 12 q33 3.5 64 4.5 q31 1 53 1 q51 0 91.5 0.5 q40.5 0.5 74.5 0.5 q35 0 67.5 -1 q32.5 -1 68.5 -3 q26 -1 35.5 -10 q9.5 -9 9.5 -22 q0 -17 -11 -37 q-11 -20 -20 -37 q-4 -8 -13 -11.5 q-9 -3.5 -7 5.5 q2 9 4 19.5 q2 10.5 2 20.5 q0 18 -7 32.5 q-7 14.5 -24 20.5 q-10 4 -24 5.5 q-14 1.5 -30 1.5 q-30 0 -60 -6 q-30 -6 -47 -19 q-21 -16 -42.5 -52 q-21.5 -36 -40.5 -77 q-19 -41 -34 -72 q-1 -2 -1 -6 q0 -5 9 -5 q14 0 39.5 0 q25.5 0 53.5 -0.5 q28 -0.5 48 -0.5 q22 0 35 -2.5 q13 -2.5 13 -13.5 q0 -4 -5 -16 q-7 -16 -15.5 -27.5 q-8.5 -11.5 -13.5 -23.5 q-1 -4 -9 -7 q-8 -3 -6 1 q4 9 8.5 22.5 q4.5 13.5 4.5 23.5 q0 16 -14 16 l-156 0 q-9 0 -14 -8 q-29 -58 -62.5 -124 q-33.5 -66 -77.5 -113 q-25 -27 -58 -44 q-33 -17 -68 -17 Z" /><glyph glyph-name="G" unicode="G" d="M178 -348 q-38 0 -78.5 16.5 q-40.5 16.5 -57.5 52.5 q-7 13 -8.5 27.5 q-1.5 14.5 -1.5 28.5 l0 11 q0 8 2 14.5 q2 6.5 10 6.5 q2 0 2 -2 q0 -6 -1 -12 q-1 -6 -1 -13 q0 -46 29.5 -70 q29.5 -24 73.5 -24 q63 0 116 31 q53 31 96 85 q42 52 68.5 101.5 q26.5 49.5 46.5 100.5 q20 51 41 105 q-26 -39 -72 -71.5 q-46 -32.5 -99.5 -52 q-53.5 -19.5 -103.5 -19.5 q-53 0 -99.5 18.5 q-46.5 18.5 -74.5 55.5 q-28 37 -28 93 q0 65 25 127 q25 62 67 115.5 q42 53.5 94 92.5 q46 35 106.5 57 q60.5 22 120.5 22 q25 0 47 -3.5 q22 -3.5 45 -14.5 q20 -9 32 -22.5 q12 -13.5 12 -30.5 q0 -2 0 -5 q0 -3 -1 -5 q-4 -16 -18.5 -36.5 q-14.5 -20.5 -22.5 -42.5 q-1 -4 -11 -6.5 q-10 -2.5 -8 1.5 q8 13 12.5 32 q4.5 19 4.5 38 q0 14 -2.5 26.5 q-2.5 12.5 -8.5 21.5 q-10 18 -31 25 q-21 7 -45 7 q-23 0 -46 -5 q-23 -5 -40 -11 q-58 -21 -111 -66 q-47 -41 -83.5 -95 q-36.5 -54 -57.5 -111 q-21 -57 -21 -109 q0 -53 20.5 -86 q20.5 -33 54.5 -48.5 q34 -15.5 73 -15.5 q81 0 142.5 37.5 q61.5 37.5 104.5 98.5 q43 61 66 131 l-103 0 q-12 0 -33 -1.5 q-21 -1.5 -43 -7 q-22 -5.5 -37 -17.5 q-15 -12 -15 -33 q0 -7 2 -14.5 q2 -7.5 3 -11.5 l-9 -6 q-7 13 -16.5 27.5 q-9.5 14.5 -10.5 23.5 q-1 8 1 21 q2 13 13 23 q12 11 34.5 14.5 q22.5 3.5 46.5 3.5 q22 0 42 -1.5 q20 -1.5 32 -1.5 l190 0 l-11 -12 q-14 0 -31 -4.5 q-17 -4.5 -28 -18.5 q-22 -28 -33.5 -63 q-11.5 -35 -23.5 -74 q-20 -71 -39 -139.5 q-19 -68.5 -50.5 -130 q-31.5 -61.5 -91.5 -113.5 q-32 -27 -80 -46.5 q-48 -19.5 -89 -19.5 Z" /><glyph glyph-name="H" unicode="H" d="M114 -20 q-31 0 -59 18 q-28 18 -42 53 q-5 13 -6.5 28 q-1.5 15 -1.5 29 l0 13 q0 7 1.5 13 q1.5 6 7.5 6 q2 0 2 -2 q0 -6 -0.5 -12 q-0.5 -6 -0.5 -12 q0 -47 23.5 -71 q23.5 -24 58.5 -24 q35 0 68 20 q33 20 61 51 q23 25 45.5 65 q22.5 40 46.5 86 q-32 -1 -67 -2.5 q-35 -1.5 -64 -6.5 q-9 -1 -5 5 q4 6 15 15 q11 9 23.5 16 q12.5 7 20.5 8 q17 -1 42.5 -1.5 q25.5 -0.5 50.5 -1.5 q22 40 42.5 81.5 q20.5 41.5 38.5 77.5 q10 20 26.5 40.5 q16.5 20.5 37 36.5 q20.5 16 42.5 20 q-53 -2 -109.5 -3 q-56.5 -1 -107.5 -15 q-23 -6 -41 -16 q-18 -10 -26 -25 q-8 -15 -8 -33 q0 -25 14 -36 q1 -1 1 -2 q0 -2 -3.5 -4 q-3.5 -2 -6.5 -1 q-9 5 -22 24.5 q-13 19.5 -16 32.5 q-3 12 -3 22 q0 26 17 40.5 q17 14.5 43 21 q26 6.5 53 8 q27 1.5 48 1.5 l111 0 q38 0 66 0.5 q28 0.5 45 3.5 q2 0 3 0.5 q1 0.5 2 0.5 q6 0 6 -4 q0 -4 -3.5 -7.5 q-3.5 -3.5 -5.5 -3.5 q-31 -3 -58 -27 q-27 -24 -49 -62 q-6 -11 -22 -41 q-16 -30 -35 -66 q-19 -36 -35 -67 q19 -1 31.5 -1.5 q12.5 -0.5 14.5 -0.5 l147 0 q9 0 33.5 3 q24.5 3 37.5 9 q27 52 55 103 q28 51 52.5 91.5 q24.5 40.5 38.5 58.5 q17 7 38.5 17 q21.5 10 43 18 q21.5 8 38.5 8 q5 0 10.5 -3 q5.5 -3 5.5 -6 q0 -5 -20 -5 q-10 0 -21 -3.5 q-11 -3.5 -28 -21.5 q-14 -14 -36.5 -47.5 q-22.5 -33.5 -48.5 -78 q-26 -44.5 -52.5 -93.5 q-26.5 -49 -49.5 -95.5 q-23 -46.5 -39 -84 q-16 -37.5 -21 -57.5 q-1 -7 -2.5 -15.5 q-1.5 -8.5 -1.5 -16.5 q0 -16 8 -28 q8 -12 30 -12 q16 0 32.5 6 q16.5 6 29.5 13 q36 20 65 54.5 q29 34.5 47 58.5 q3 4 4 4 q3 0 3 -7 q0 -6 -3 -11 q-19 -27 -50 -62.5 q-31 -35.5 -72 -58.5 q-32 -17 -73 -17 q-31 0 -53.5 22.5 q-22.5 22.5 -22.5 54.5 q0 16 6 32 q9 23 29.5 66 q20.5 43 46.5 95 q-10 -9 -23 -16 q-13 -7 -25 -6 q-31 3 -70.5 3.5 q-39.5 0.5 -101.5 0.5 l-48 0 q-28 -57 -58 -111.5 q-30 -54.5 -62 -89.5 q-25 -27 -60 -44 q-35 -17 -70 -17 Z" /><glyph glyph-name="I" unicode="I" d="M120 -10 q-31 0 -59 17.5 q-28 17.5 -42 53.5 q-5 13 -7 27.5 q-2 14.5 -2 28.5 q0 14 5 14 q6 0 6 -8 q0 -47 23.5 -71 q23.5 -24 58.5 -24 q35 0 68 20 q33 20 61 51 q45 50 77 101.5 q32 51.5 58.5 106 q26.5 54.5 53.5 113.5 q14 30 34.5 56.5 q20.5 26.5 45.5 42.5 l-30 0 q-15 0 -41.5 -2 q-26.5 -2 -53.5 -9 q-27 -7 -45 -23 q-18 -16 -16 -43 q1 -8 6 -21.5 q5 -13.5 6 -16.5 l-10 -8 q-6 11 -15 25.5 q-9 14.5 -16.5 28.5 q-7.5 14 -8.5 21 q-1 10 1.5 26 q2.5 16 15.5 28 q15 13 41.5 17 q26.5 4 54.5 4 q27 0 52 -2 q25 -2 41 -2 l160 1 l-13 -15 q-10 0 -28.5 -1.5 q-18.5 -1.5 -38.5 -5.5 q-24 -4 -55 -26.5 q-31 -22.5 -53 -59.5 l-9 -15 q-15 -34 -34 -81 q-19 -47 -42.5 -99 q-23.5 -52 -51.5 -100.5 q-28 -48.5 -62 -84.5 q-25 -27 -63 -46 q-38 -19 -73 -19 Z" /><glyph glyph-name="J" unicode="J" d="M-113 -167 q-31 0 -59 18 q-28 18 -42 54 q-5 13 -6.5 27.5 q-1.5 14.5 -1.5 28.5 q0 14 5 14 q5 0 5 -8 q0 -47 23.5 -71 q23.5 -24 59.5 -24 q35 0 67.5 20 q32.5 20 60.5 51 q47 51 85.5 116.5 q38.5 65.5 69.5 135.5 q8 17 23 54.5 q15 37.5 33 82 q18 44.5 35 80.5 q15 34 25.5 54 q10.5 20 28.5 34 q18 14 54 28 q-16 -1 -30 -2.5 q-14 -1.5 -22 -1.5 q-38 -1 -76 -5 q-38 -4 -68 -14.5 q-30 -10.5 -43 -29.5 q-9 -13 -9 -30 q0 -17 9 -33 q9 -16 23 -23 q2 -2 2 -3 q0 -2 -4.5 -4.5 q-4.5 -2.5 -9.5 -1.5 q-8 5 -20 16.5 q-12 11.5 -21.5 24.5 q-9.5 13 -12.5 22 q-4 12 -4 24 q0 24 17.5 39 q17.5 15 45.5 23 q28 8 60.5 11.5 q32.5 3.5 63 4 q30.5 0.5 52.5 0.5 l108 0 q2 0 2 -1 q0 -3 -6.5 -8.5 q-6.5 -5.5 -8.5 -5.5 q-28 -1 -49.5 -21 q-21.5 -20 -37 -45.5 q-15.5 -25.5 -25.5 -46.5 q-6 -12 -18.5 -38.5 q-12.5 -26.5 -27 -60 q-14.5 -33.5 -29 -66.5 q-14.5 -33 -25.5 -57 q-26 -60 -48.5 -111.5 q-22.5 -51.5 -49.5 -96.5 q-27 -45 -67 -88 q-25 -27 -63.5 -46.5 q-38.5 -19.5 -73.5 -19.5 Z" /><glyph glyph-name="K" unicode="K" d="M6 -21 q-4 0 -6.5 2 q-2.5 2 -0.5 3 q23 18 38.5 36 q15.5 18 31.5 46 l14 24 q20 34 45 78 q25 44 50.5 89 q25.5 45 47 83 q21.5 38 34.5 61.5 q13 23.5 13 23.5 q27 47 59.5 71.5 q32.5 24.5 57.5 31.5 q-73 -1 -130 -11 q-57 -10 -77 -47 q-4 -7 -5.5 -15.5 q-1.5 -8.5 -1.5 -16.5 q0 -26 14 -37 q1 -1 1 -2 q0 -2 -3.5 -4 q-3.5 -2 -6.5 -1 q-9 5 -22 24.5 q-13 19.5 -16 32.5 q-3 12 -3 22 q0 27 19 42 q19 15 46.5 21 q27.5 6 56.5 7 q29 1 48 1 l40 0 q20 0 43.5 0.5 q23.5 0.5 39.5 3.5 l4 0 q6 0 9 -4 q3 -4 3 -8 q0 -8 -7 -8 q-4 0 -6.5 0.5 q-2.5 0.5 -6.5 0.5 q-46 0 -92 -80 q0 0 -10.5 -17.5 q-10.5 -17.5 -26 -44.5 q-15.5 -27 -32.5 -57 q-17 -30 -30 -54 q-27 -50 -57.5 -108.5 q-30.5 -58.5 -62.5 -121.5 q-7 -12 -12 -27.5 q-5 -15.5 -15 -15.5 q-4 0 -10 1 q-6 1 -13 1 q-17 0 -30.5 -6 q-13.5 -6 -27.5 -19 q-1 -1 -4 -1 ZM442 -11 q-25 0 -51 16.5 q-26 16.5 -53 51.5 q-32 43 -54 83.5 q-22 40.5 -35.5 70.5 q-13.5 30 -20.5 43 q56 52 115.5 93 q59.5 41 118.5 78 q40 24 86 53.5 q46 29.5 93 49.5 q33 14 64 14 q14 0 28 -2.5 q14 -2.5 27 -7.5 q10 -3 23 -12.5 q13 -9.5 11 -21.5 q0 -4 -4 -4 q-5 0 -9 6 q-4 6 -12 12 q-8 6 -25 6 q-22 0 -48.5 -9 q-26.5 -9 -46.5 -17 q-40 -17 -84 -37 q-44 -20 -83 -42 q-35 -19 -74 -44 q-39 -25 -75.5 -50.5 q-36.5 -25.5 -65.5 -46.5 q6 -15 20 -45 q14 -30 37 -67.5 q23 -37.5 54 -75.5 q23 -28 45.5 -40.5 q22.5 -12.5 42.5 -12.5 q27 0 50.5 15.5 q23.5 15.5 45 39.5 q21.5 24 40.5 49 q5 6 7 6 q4 0 4 -5 q0 -6 -5 -12 q-44 -61 -84.5 -98 q-40.5 -37 -81.5 -37 Z" /><glyph glyph-name="L" unicode="L" d="M8 -7 q-1 -1 -2 -1 q-3 0 -3 9 q0 6 3.5 12.5 q3.5 6.5 13.5 7.5 q28 2 53 19 q25 17 44 40.5 q19 23.5 27 44.5 l92 230 q19 47 43.5 91 q24.5 44 63 72 q38.5 28 97.5 28 q23 0 46.5 -5.5 q23.5 -5.5 39.5 -17.5 q16 -12 16 -34 q0 -3 0 -6 q0 -3 -1 -6 q-3 -16 -17.5 -32 q-14.5 -16 -22.5 -40 q-1 -7 -9 -7 q-7 0 -3 9 q8 12 12.5 28.5 q4.5 16.5 4.5 33.5 q0 26 -12 46 q-12 20 -41 20 q-26 0 -53 -15 q-27 -15 -47 -52 l-185 -341 q-26 -48 -47.5 -68.5 q-21.5 -20.5 -35.5 -25.5 l241 0 q48 0 89 3 q41 3 50 15 q10 14 10 30 q0 25 -27 37 q-3 2 -3 4 q0 2 2.5 4 q2.5 2 6.5 0 q9 -4 21.5 -17.5 q12.5 -13.5 23.5 -29 q11 -15.5 14 -24.5 q3 -9 3 -18 q0 -41 -71 -41 q-56 0 -120 4 q-64 4 -126.5 9 q-62.5 5 -117.5 7 q-21 2 -41.5 -5.5 q-20.5 -7.5 -31.5 -17.5 Z" /><glyph glyph-name="M" unicode="M" d="M116 -10 q-31 0 -59 17.5 q-28 17.5 -42 53.5 q-5 13 -7 27.5 q-2 14.5 -2 28.5 q0 14 5 14 q6 0 6 -8 q0 -47 23.5 -71 q23.5 -24 58.5 -24 q35 0 67.5 20 q32.5 20 60.5 51 q46 50 78 101.5 q32 51.5 58.5 106 q26.5 54.5 53.5 113.5 q17 36 42.5 63 q25.5 27 61.5 37 l1 1 l-55 0 q-35 0 -74 -3 q-39 -3 -70.5 -13 q-31.5 -10 -45.5 -30 q-9 -13 -9 -30 q0 -17 9 -33 q9 -16 23 -23 q2 -2 2 -3 q0 -2 -4.5 -4.5 q-4.5 -2.5 -9.5 -1.5 q-8 5 -20 16.5 q-12 11.5 -21.5 24.5 q-9.5 13 -12.5 22 q-4 12 -4 24 q0 24 17.5 39 q17.5 15 45.5 23 q28 8 60.5 11.5 q32.5 3.5 63 4 q30.5 0.5 52.5 0.5 l108 0 q2 0 2 -1 q0 -3 -6.5 -8.5 q-6.5 -5.5 -8.5 -5.5 q-25 -5 -37 -26.5 q-12 -21.5 -11 -68.5 q0 0 0.5 -22 q0.5 -22 1.5 -57 q1 -35 2 -75 q1 -40 2 -77 q1 -37 2 -62 l0 -6 l347 366 q33 35 65.5 59.5 q32.5 24.5 67.5 21.5 q1 0 1.5 -0.5 q0.5 -0.5 0.5 -0.5 q0 -3 -4 -7 q-4 -4 -9 -5 q-26 1 -47 -20 q-21 -21 -39 -50 q-9 -15 -27 -47.5 q-18 -32.5 -40.5 -76.5 q-22.5 -44 -45.5 -93 q-23 -49 -42.5 -96 q-19.5 -47 -31.5 -85.5 q-12 -38.5 -12 -62.5 q0 -28 19 -28 q8 0 17 4 q13 5 29 15 q16 10 29 23 q26 25 46 51.5 q20 26.5 24 30.5 q3 4 5 4 q4 0 4 -6 q0 -6 -4 -11 q-8 -10 -27 -34.5 q-19 -24.5 -44.5 -49.5 q-25.5 -25 -54.5 -38 q-9 -4 -19 -6.5 q-10 -2.5 -20 -2.5 q-22 0 -39.5 13.5 q-17.5 13.5 -17.5 45.5 q0 31 14.5 70.5 q14.5 39.5 33 77 q18.5 37.5 30.5 63.5 q13 27 33 69 q20 42 46 85 l-288 -304 q-1 -8 -7 -15.5 q-6 -7.5 -19 -12.5 q-7 -3 -19 -16 q-12 -13 -16 -18 q0 -1 -3 -1 q-3 0 -6 2 q-3 2 -2 3 q26 33 27 91 l1 24 q2 42 3 88.5 q1 46.5 1.5 87 q0.5 40.5 0.5 66 q0 25.5 0 25.5 q0 24 7 42 q7 18 17 31 q-17 -13 -33 -31 q-16 -18 -27 -40 q-15 -31 -34 -80 q-19 -49 -43.5 -104 q-24.5 -55 -54 -107.5 q-29.5 -52.5 -65.5 -90.5 q-25 -27 -63.5 -46 q-38.5 -19 -72.5 -19 Z" /><glyph glyph-name="N" unicode="N" d="M577 -30 q-3 0 -5.5 2 q-2.5 2 -1.5 3 q7 9 11.5 19.5 q4.5 10.5 8.5 21.5 q-13 70 -34.5 146 q-21.5 76 -46 152.5 q-24.5 76.5 -46.5 145.5 q-7 -5 -14.5 -24 q-7.5 -19 -10.5 -28 q-13 -34 -30.5 -79.5 q-17.5 -45.5 -39 -94 q-21.5 -48.5 -48 -95 q-26.5 -46.5 -58.5 -84.5 q-15 -19 -41 -33.5 q-26 -14.5 -54 -23 q-28 -8.5 -51 -8.5 q-31 0 -59.5 17.5 q-28.5 17.5 -42.5 53.5 q-4 13 -6 27.5 q-2 14.5 -2 28.5 q0 14 5 14 q5 0 5 -8 q0 -47 26 -78 q26 -31 62 -31 q35 0 70 17 q35 17 63 47 q45 50 76 106 q31 56 55 116 q24 60 49 120 q15 38 42 66 q27 28 63 35 l-55 0 q-35 0 -74 -3 q-39 -3 -71 -13 q-32 -10 -46 -30 q-8 -12 -8 -29 q0 -18 9 -34 q9 -16 23 -23 q2 -2 2 -2 q0 -3 -4.5 -5.5 q-4.5 -2.5 -9.5 -1.5 q-8 5 -20 16.5 q-12 11.5 -21.5 24.5 q-9.5 13 -12.5 22 q-4 12 -4 24 q0 24 17.5 39 q17.5 15 45.5 23 q28 8 60.5 11.5 q32.5 3.5 62.5 4 q30 0.5 52 0.5 l121 0 q5 1 0.5 -7 q-4.5 -8 -11 -15.5 q-6.5 -7.5 -10.5 -7.5 q-10 1 -30.5 -3.5 q-20.5 -4.5 -28.5 -10.5 q3 -38 14.5 -89 q11.5 -51 27.5 -107.5 q16 -56.5 35.5 -113 q19.5 -56.5 38.5 -105.5 q16 38 36 93 q20 55 42.5 117 q22.5 62 47 120.5 q24.5 58.5 49 104.5 q24.5 46 48.5 68 q12 11 29 17.5 q17 6.5 32 6.5 q14 0 24 -6.5 q10 -6.5 9 -20.5 l-1 -36 q0 -1 -5 -2 q-5 -1 -4 0 q1 13 -10 18.5 q-11 5.5 -18 5.5 q-21 1 -44.5 -26 q-23.5 -27 -48.5 -71 q-25 -44 -49 -96.5 q-24 -52.5 -45.5 -105 q-21.5 -52.5 -38.5 -96.5 q-17 -44 -28 -69 q-10 -21 -10 -41 q0 -3 0 -6 q0 -3 1 -6 q0 -4 1.5 -9 q1.5 -5 2.5 -10 q0 -1 0.5 -2 q0.5 -1 0.5 -3 q0 -8 -8 -14 q-10 -7 -22 -12 q-7 -3 -19.5 -15.5 q-12.5 -12.5 -15.5 -17.5 q-2 -2 -4 -2 Z" /><glyph glyph-name="O" unicode="O" d="M232 -12 q-40 0 -80 6.5 q-40 6.5 -72.5 23.5 q-32.5 17 -52.5 48 q-20 31 -20 80 q0 41 16.5 94.5 q16.5 53.5 49.5 108 q33 54.5 82.5 101.5 q49.5 47 115 75.5 q65.5 28.5 147.5 28.5 q120 0 175 -38.5 q55 -38.5 55 -119.5 q0 -79 -32.5 -152 q-32.5 -73 -90 -131 q-57.5 -58 -132.5 -91.5 q-75 -33.5 -161 -33.5 ZM224 3 q61 0 116.5 23.5 q55.5 23.5 101 64 q45.5 40.5 79 92.5 q33.5 52 52 109 q18.5 57 18.5 113 q0 62 -39 98 q-39 36 -132 36 q-53 0 -105.5 -26.5 q-52.5 -26.5 -98 -70.5 q-45.5 -44 -81 -97 q-35.5 -53 -55.5 -107 q-20 -54 -20 -101 q0 -63 37.5 -98.5 q37.5 -35.5 126.5 -35.5 Z" /><glyph glyph-name="P" unicode="P" d="M14 -19 q-7 0 -11 3.5 q-4 3.5 0 5.5 q22 4 38 16.5 q16 12.5 26 31.5 q21 35 41.5 70.5 q20.5 35.5 39.5 71.5 q23 44 47 88.5 q24 44.5 48 88.5 q23 41 41 79 q18 38 27 55 q7 13 24.5 23.5 q17.5 10.5 34.5 16.5 q-6 0 -12 0.5 q-6 0.5 -13 0.5 q-31 0 -67.5 -3.5 q-36.5 -3.5 -71 -10.5 q-34.5 -7 -60.5 -19 q-26 -12 -35 -29 q-4 -9 -7 -18 q-3 -9 -3 -18 q0 -23 16 -33 q1 0 1 -2 q0 -2 -3.5 -4 q-3.5 -2 -5.5 -1 q-10 5 -22.5 24.5 q-12.5 19.5 -16.5 32.5 q-3 12 -3 22 q0 26 17 40.5 q17 14.5 43 21 q26 6.5 53.5 8 q27.5 1.5 48.5 1.5 q32 0 76 0.5 q44 0.5 81 0.5 q9 0 20 0.5 q11 0.5 23 0.5 q27 0 56 -3 q29 -3 53 -13 q24 -10 37 -31 q20 -31 20 -66 q0 -39 -22.5 -73.5 q-22.5 -34.5 -56.5 -60.5 q-34 -26 -69 -40 q-33 -13 -73.5 -18 q-40.5 -5 -72.5 -5 q-10 0 -19.5 0.5 q-9.5 0.5 -16.5 1.5 q-2 0 -2 2 q0 4 8 11.5 q8 7.5 13 6.5 q8 -1 16 -1 q8 0 17 0 q38 0 81 10 q43 10 79.5 38.5 q36.5 28.5 55.5 83.5 q5 12 6.5 24.5 q1.5 12.5 1.5 24.5 q0 34 -17 60 q-17 26 -49 30 q-4 1 -9 1 q-5 0 -10 0 q-19 0 -41.5 -5 q-22.5 -5 -33.5 -19 q-25 -33 -48 -74.5 q-23 -41.5 -44 -84 q-21 -42.5 -40 -79.5 q-5 -10 -19 -35.5 q-14 -25.5 -31 -58 q-17 -32.5 -32 -64.5 q-15 -32 -23.5 -57 q-8.5 -25 -4.5 -34 q1 -1 1 -3 q0 -3 -3 -3 q-8 0 -16 4 q-8 4 -19 4 q-10 0 -20 -5 q-10 -4 -26 -15 q-16 -11 -36 -18 q-2 -1 -6 -1 Z" /><glyph glyph-name="Q" unicode="Q" d="M494 -269 q-24 0 -45 10 q-21 10 -36 34 q-16 26 -35.5 58 q-19.5 32 -38.5 64.5 q-19 32.5 -33.5 57.5 q-14.5 25 -20.5 36 q-25 -3 -53 -3 q-40 0 -80 6.5 q-40 6.5 -72.5 23.5 q-32.5 17 -52.5 48 q-20 31 -20 80 q0 41 16.5 94.5 q16.5 53.5 49.5 108 q33 54.5 82.5 101.5 q49.5 47 115 75.5 q65.5 28.5 147.5 28.5 q120 0 175 -38.5 q55 -38.5 55 -119.5 q0 -67 -24 -131 q-24 -64 -67.5 -117.5 q-43.5 -53.5 -101.5 -92 q-58 -38.5 -127 -55.5 q7 -15 22.5 -40 q15.5 -25 34.5 -54 q19 -29 38.5 -56.5 q19.5 -27.5 34.5 -48.5 q15 -21 34 -29.5 q19 -8.5 38 -8.5 q29 0 56 13 q27 13 47.5 28.5 q20.5 15.5 27.5 23.5 q3 3 5 3 q3 0 4.5 -3.5 q1.5 -3.5 -1.5 -7.5 q-14 -16 -42.5 -37 q-28.5 -21 -63.5 -36.5 q-35 -15.5 -69 -15.5 ZM224 3 q61 0 116.5 23.5 q55.5 23.5 101 64 q45.5 40.5 79 92.5 q33.5 52 52 109 q18.5 57 18.5 113 q0 62 -39 98 q-39 36 -132 36 q-53 0 -105.5 -26.5 q-52.5 -26.5 -98 -70.5 q-45.5 -44 -81 -97 q-35.5 -53 -55.5 -107 q-20 -54 -20 -101 q0 -63 37.5 -98.5 q37.5 -35.5 126.5 -35.5 Z" /><glyph glyph-name="R" unicode="R" d="M472 -23 q-25 0 -50.5 15.5 q-25.5 15.5 -51.5 49.5 q-32 44 -54 84 q-22 40 -35.5 70 q-13.5 30 -20.5 43 q0 0 5 6.5 q5 6.5 12.5 13 q7.5 6.5 12.5 6.5 q47 0 84.5 1.5 q37.5 1.5 67 12 q29.5 10.5 52.5 36.5 q23 26 39 74 q5 12 6.5 24.5 q1.5 12.5 1.5 24.5 q0 34 -17 60 q-17 26 -49 30 q-4 1 -9 1 q-5 0 -10 0 q-19 0 -41.5 -5 q-22.5 -5 -33.5 -19 q-25 -33 -48 -74.5 q-23 -41.5 -44 -84 q-21 -42.5 -40 -79.5 q-5 -10 -19 -35.5 q-14 -25.5 -31 -58 q-17 -32.5 -32 -64.5 q-15 -32 -23.5 -57 q-8.5 -25 -4.5 -34 q1 -1 1 -3 q0 -3 -3 -3 q-8 0 -16 4 q-8 4 -19 4 q-10 0 -20 -5 q-10 -4 -26 -15 q-16 -11 -36 -18 q-2 -1 -6 -1 q-7 0 -11 3.5 q-4 3.5 0 5.5 q22 4 38 16.5 q16 12.5 26 31.5 q21 35 41.5 70.5 q20.5 35.5 39.5 71.5 q23 44 47 88.5 q24 44.5 48 88.5 q23 41 41 79 q18 38 27 55 q7 13 24.5 23.5 q17.5 10.5 34.5 16.5 q-6 0 -12 0.5 q-6 0.5 -13 0.5 q-31 0 -67.5 -3.5 q-36.5 -3.5 -71 -10.5 q-34.5 -7 -60.5 -19 q-26 -12 -35 -29 q-4 -9 -7 -18 q-3 -9 -3 -18 q0 -23 16 -33 q1 0 1 -2 q0 -2 -3.5 -4 q-3.5 -2 -5.5 -1 q-10 5 -22.5 24.5 q-12.5 19.5 -16.5 32.5 q-3 12 -3 22 q0 26 17 40.5 q17 14.5 43 21 q26 6.5 53.5 8 q27.5 1.5 48.5 1.5 q32 0 76 0.5 q44 0.5 81 0.5 q9 0 20 0.5 q11 0.5 23 0.5 q27 0 56 -3 q29 -3 53 -13 q24 -10 37 -31 q17 -28 17 -64 q0 -55 -29 -92 q-10 -13 -22 -25 q-12 -12 -28 -23 q-26 -18 -62 -30.5 q-36 -12.5 -74.5 -18.5 q-38.5 -6 -70.5 -8 q13 -28 39.5 -75 q26.5 -47 64.5 -94 q20 -25 41 -35 q21 -10 41 -10 q32 0 60.5 19 q28.5 19 52 44.5 q23.5 25.5 37.5 44.5 q3 5 5 5 q3 0 3 -6 q0 -8 -6 -16 q-46 -63 -88 -100.5 q-42 -37.5 -84 -37.5 Z" /><glyph glyph-name="S" unicode="S" d="M221 -34 q-35 0 -73.5 10.5 q-38.5 10.5 -68 34.5 q-29.5 24 -39.5 64 q-1 5 -1.5 11 q-0.5 6 -0.5 12 q0 31 14 60 q14 29 34 44 l1 0 q2 0 5.5 -4.5 q3.5 -4.5 -0.5 -6.5 q-10 -10 -14.5 -22.5 q-4.5 -12.5 -4.5 -26.5 q0 -19 6.5 -38.5 q6.5 -19.5 16.5 -33.5 q25 -35 69.5 -55.5 q44.5 -20.5 87.5 -20.5 q59 0 91.5 35 q32.5 35 32.5 86 q0 31 -12 62 q-16 43 -42.5 84.5 q-26.5 41.5 -48.5 81.5 q-19 36 -19 73 q0 39 24 75 q24 32 63.5 51.5 q39.5 19.5 80.5 19.5 q28 0 54 -10 q26 -10 47 -33 q6 -9 6 -23 q0 -20 -8 -31 q-9 -13 -20 -34 q-11 -21 -13 -29 q-2 -1 -9.5 -3.5 q-7.5 -2.5 -9.5 0.5 q4 8 11 29 q7 21 7 38 q0 11 -0.5 24.5 q-0.5 13.5 -13.5 23.5 q-12 11 -31 19 q-19 8 -46 8 q-55 0 -84 -32 q-29 -32 -29 -70 q0 -19 8 -38 q15 -36 42 -68 q27 -32 53.5 -65.5 q26.5 -33.5 41.5 -72.5 q10 -26 10 -53 q0 -39 -19.5 -71 q-19.5 -32 -52 -55.5 q-32.5 -23.5 -70.5 -36.5 q-38 -13 -76 -13 Z" /><glyph glyph-name="T" unicode="T" d="M148 -39 q-31 0 -59 17.5 q-28 17.5 -42 53.5 q-5 13 -7 28 q-2 15 -2 28 l0 9 q0 8 1.5 16 q1.5 8 8.5 8 q2 0 2 -2 q0 -6 -0.5 -12.5 q-0.5 -6.5 -0.5 -12.5 q0 -47 23.5 -71 q23.5 -24 58.5 -24 q35 0 68 20 q33 20 61 51 q28 31 53 77 q25 46 47 97.5 q22 51.5 41.5 101.5 q19.5 50 36.5 89 q10 23 37.5 39 q27.5 16 52.5 23 q-7 1 -13.5 1.5 q-6.5 0.5 -12.5 1.5 l-141 14 q-16 2 -42 3 q-26 1 -55 1 q-39 0 -80 -4.5 q-41 -4.5 -74 -15.5 q-33 -11 -48 -33 q-8 -12 -8 -28 q0 -16 9 -30 q9 -14 23 -22 q2 -2 2 -3 q0 -3 -4.5 -5 q-4.5 -2 -9.5 0 q-9 5 -21 17 q-12 12 -21.5 25.5 q-9.5 13.5 -13.5 22.5 q-6 17 -6 30 q0 24 16.5 39.5 q16.5 15.5 43 24 q26.5 8.5 57 12 q30.5 3.5 58.5 3.5 q11 0 21 0 q10 0 19 -1 q32 -2 67 -4 q35 -2 71 -5 l159 -13 q16 -1 48.5 -3.5 q32.5 -2.5 66.5 -2.5 q37 0 68 4.5 q31 4.5 41 16.5 q2 4 6 2 q4 -2 2 -5 q-3 -12 -8 -18 q-5 -10 -13.5 -22 q-8.5 -12 -25.5 -16 q-4 -1 -11 -1.5 q-7 -0.5 -15 -0.5 q-23 0 -55.5 3.5 q-32.5 3.5 -63.5 7.5 q-30 -5 -52 -28 q-22 -23 -38 -52.5 q-16 -29.5 -28 -55.5 q-22 -45 -36.5 -82.5 q-14.5 -37.5 -35.5 -82.5 q-21 -46 -44 -90.5 q-23 -44.5 -56 -80.5 q-25 -27 -58 -43.5 q-33 -16.5 -68 -16.5 Z" /><glyph glyph-name="U" unicode="U" d="M146 -26 q-32 0 -44.5 11 q-12.5 11 -12.5 28 q0 11 3.5 22.5 q3.5 11.5 7.5 23.5 q13 32 27.5 63 q14.5 31 30.5 61 q16 31 38 74 q22 43 43.5 90.5 q21.5 47.5 36 92.5 q14.5 45 14.5 79 l-88 0 q-15 0 -41.5 -2 q-26.5 -2 -54 -9 q-27.5 -7 -45.5 -23 q-18 -16 -16 -43 q1 -8 6 -21.5 q5 -13.5 7 -16.5 l-11 -8 q-6 11 -15 25.5 q-9 14.5 -16 28.5 q-7 14 -8 21 q0 2 -0.5 5 q-0.5 3 -0.5 6 q0 11 4 22.5 q4 11.5 14 20.5 q15 13 41.5 17 q26.5 4 54.5 4 q27 0 52 -2 q25 -2 41 -2 q0 0 23 0 q23 0 58.5 0.5 q35.5 0.5 75.5 0.5 q40 0 73 0 l-13 -15 q-18 0 -37.5 -5.5 q-19.5 -5.5 -33.5 -22.5 q-21 -27 -47 -71 q-26 -44 -53 -97 q-27 -53 -50 -106 q-23 -53 -38.5 -99.5 q-15.5 -46.5 -19.5 -78.5 q-1 -18 8.5 -26 q9.5 -8 25.5 -8 q21 0 41 11 q40 20 80 56.5 q40 36.5 76 78.5 q36 42 61 78 q40 57 77.5 124 q37.5 67 64.5 126 q7 12 12.5 27.5 q5.5 15.5 15.5 15.5 q4 0 10 -1 q6 -1 13 -1 q31 0 57 25 q1 1 5 1 q4 0 6.5 -1.5 q2.5 -1.5 0.5 -3.5 q-22 -18 -37 -36 q-15 -18 -33 -46 q-21 -32 -47.5 -74 q-26.5 -42 -53.5 -88 q-27 -46 -49 -91 q-22 -45 -34 -82 q-6 -19 -10 -38 q-4 -19 -4 -35 q0 -24 10.5 -39 q10.5 -15 35.5 -15 q5 0 9.5 0.5 q4.5 0.5 9.5 1.5 q19 3 43.5 21.5 q24.5 18.5 46.5 40.5 q22 20 37.5 38.5 q15.5 18.5 33.5 40.5 q2 -4 2 -8 q-1 -7 -4.5 -14 q-3.5 -7 -8.5 -12 q-7 -9 -21 -25.5 q-14 -16.5 -31 -34.5 q-12 -12 -36 -31.5 q-24 -19.5 -51.5 -34.5 q-27.5 -15 -51.5 -15 q-37 0 -51 19.5 q-14 19.5 -14 47.5 q0 35 14.5 77 q14.5 42 27.5 76 q-21 -25 -44 -47.5 q-23 -22.5 -46 -45.5 q-24 -23 -48.5 -46.5 q-24.5 -23.5 -50.5 -42.5 q-24 -16 -50 -27 q-26 -11 -54 -11 Z" /><glyph glyph-name="V" unicode="V" d="M277 -49 q-8 0 -13 2.5 q-5 2.5 -4 10.5 q0 3 3 9 q3 6 4 9 q5 14 9 28.5 q4 14.5 8 27.5 q14 55 26 109.5 q12 54.5 19 109.5 q4 32 10 86.5 q6 54.5 6 105.5 q0 20 -1 37.5 q-1 17.5 -5 31.5 q-33 0 -66 0.5 q-33 0.5 -65 0.5 q-15 0 -41.5 -2 q-26.5 -2 -54 -9 q-27.5 -7 -45.5 -23 q-18 -16 -16 -43 q1 -8 6 -21.5 q5 -13.5 7 -16.5 l-11 -8 q-6 11 -15 25.5 q-9 14.5 -16 28.5 q-7 14 -8 21 q-1 10 1 26 q2 16 16 28 q15 13 41.5 17 q26.5 4 54.5 4 q27 0 52 -2 q25 -2 41 -2 q0 0 23 0 q23 0 58.5 0.5 q35.5 0.5 75.5 0.5 q40 0 73 0 l-21 -26 l-70 0 q15 -28 19.5 -78 q4.5 -50 4.5 -96 q0 -19 0 -36 q0 -17 -1 -30 q-2 -47 -13 -113 q-11 -66 -28 -125 q41 58 100.5 138 q59.5 80 137 166.5 q77.5 86.5 171.5 164.5 q19 16 50 36 q31 20 66 34.5 q35 14.5 66 14.5 q29 0 40.5 -10 q11.5 -10 11.5 -26 q0 -19 -11.5 -42 q-11.5 -23 -17.5 -38 q-1 -3 -9 -4 q-8 -1 -7 3 q2 8 4.5 19.5 q2.5 11.5 2.5 23.5 q0 16 -6 29 q-6 13 -23 15 q-3 1 -6 1 q-3 0 -6 0 q-29 0 -62.5 -19.5 q-33.5 -19.5 -77.5 -54.5 q-84 -67 -159.5 -147.5 q-75.5 -80.5 -144.5 -168.5 q-36 -45 -70 -91 q-34 -46 -63 -96 q-2 -4 -3.5 -9.5 q-1.5 -5.5 -3.5 -8.5 q-2 -2 -12 -6.5 q-10 -4.5 -19.5 -8 q-9.5 -3.5 -12.5 -3.5 Z" /><glyph glyph-name="W" unicode="W" d="M277 -49 q-8 0 -13 2.5 q-5 2.5 -4 10.5 q0 3 3 9 q3 6 4 9 q5 14 9 28.5 q4 14.5 8 27.5 q14 55 26 109.5 q12 54.5 19 109.5 q2 14 3 32.5 q1 18.5 1 39.5 q0 48 -10 102 q-10 54 -39 88 l-76 0 q-15 0 -41.5 -2 q-26.5 -2 -54 -9 q-27.5 -7 -45.5 -23 q-18 -16 -16 -43 q1 -8 6 -21.5 q5 -13.5 7 -16.5 l-11 -8 q-6 11 -15 25.5 q-9 14.5 -16 28.5 q-7 14 -8 21 q-1 10 1 26 q2 16 16 28 q15 13 41.5 17 q26.5 4 54.5 4 q27 0 52 -2 q25 -2 41 -2 q0 0 23 0 q23 0 58.5 0.5 q35.5 0.5 75.5 0.5 q40 0 73 0 l-21 -26 q-30 0 -59.5 0.5 q-29.5 0.5 -59.5 0.5 q32 -21 47.5 -55 q15.5 -34 20.5 -71 q5 -37 5 -69 q0 -13 -0.5 -25 q-0.5 -12 -0.5 -21 q-2 -47 -13 -113 q-11 -66 -28 -125 q33 46 74.5 109.5 q41.5 63.5 94 134 q52.5 70.5 114.5 136.5 q25 26 53 53 q28 27 60 45 q32 18 69 18 q32 0 49 -10 l-6 -11 q-4 1 -7.5 1.5 q-3.5 0.5 -8.5 0.5 q-28 0 -59.5 -17 q-31.5 -17 -48.5 -34 q-31 -31 -48 -73.5 q-17 -42.5 -24.5 -90 q-7.5 -47.5 -11.5 -96 q-4 -48.5 -7.5 -91.5 q-3.5 -43 -12.5 -75 q41 58 101.5 138 q60.5 80 138.5 166.5 q78 86.5 171 164.5 q19 16 49.5 36 q30.5 20 65 34.5 q34.5 14.5 65.5 14.5 q29 0 40.5 -10 q11.5 -10 11.5 -26 q0 -19 -11.5 -42 q-11.5 -23 -17.5 -38 q-1 -3 -9 -4 q-8 -1 -7 3 q2 8 4.5 19.5 q2.5 11.5 2.5 23.5 q0 16 -6 29 q-6 13 -23 15 q-3 1 -6 1 q-3 0 -6 0 q-28 0 -61 -19.5 q-33 -19.5 -76 -54.5 q-84 -67 -161 -147.5 q-77 -80.5 -146 -168.5 q-36 -45 -70 -91 q-34 -46 -63 -96 q-2 -4 -3.5 -9.5 q-1.5 -5.5 -3.5 -8.5 q-2 -2 -12 -6.5 q-10 -4.5 -19.5 -8 q-9.5 -3.5 -12.5 -3.5 q-8 0 -13 2.5 q-5 2.5 -4 10.5 q0 3 3 9 q3 6 4 9 q5 14 9 28.5 q4 14.5 8 27.5 q12 44 17.5 93 q5.5 49 11 98.5 q5.5 49.5 17.5 95.5 q12 46 37 83 q-20 -12 -57 -58.5 q-37 -46.5 -90 -112.5 q-18 -22 -40 -54.5 q-22 -32.5 -44.5 -68 q-22.5 -35.5 -43 -69 q-20.5 -33.5 -34.5 -58.5 q-2 -4 -3.5 -9.5 q-1.5 -5.5 -3.5 -8.5 q-2 -2 -14.5 -6.5 q-12.5 -4.5 -24.5 -8 q-12 -3.5 -15 -3.5 Z" /><glyph glyph-name="X" unicode="X" d="M-59 -59 q-23 0 -37.5 13 q-14.5 13 -14.5 41 q0 13 5.5 30.5 q5.5 17.5 12.5 34.5 q7 16 11 16 q4 0 2 -8 q-12 -28 -12 -47 q0 -36 39 -36 q5 0 10 0.5 q5 0.5 10 1.5 q47 10 101 48.5 q54 38.5 111.5 94.5 q57.5 56 113.5 116 q-4 18 -6.5 35 q-2.5 17 -4.5 31 q-4 29 -6.5 59.5 q-2.5 30.5 -2.5 58.5 q0 29 3.5 52 q3.5 23 12.5 36 q-20 1 -40.5 1 q-20.5 0 -40.5 0 q-15 0 -41.5 -2 q-26.5 -2 -54 -9 q-27.5 -7 -45.5 -23 q-18 -16 -16 -43 q1 -8 6 -21.5 q5 -13.5 7 -16.5 l-11 -8 q-6 11 -15 25.5 q-9 14.5 -16 28.5 q-7 14 -8 21 q-1 10 1 26 q2 16 16 28 q15 13 41.5 17 q26.5 4 54.5 4 q27 0 52 -2 q25 -2 41 -2 q0 0 23 0 q23 0 58.5 0.5 q35.5 0.5 75.5 0.5 q40 0 73 0 l-21 -26 q-31 0 -63 0.5 q-32 0.5 -64 0.5 q-1 -7 -1 -13.5 q0 -6.5 0 -14.5 q0 -36 5 -74 q5 -38 12 -72 q7 -34 12 -57 q26 27 62 62.5 q36 35.5 76 72.5 q40 37 80 69 q40 32 75 51 q20 11 40.5 17.5 q20.5 6.5 41.5 6.5 q4 0 8 0 q4 0 8 -1 q25 -4 34 -14.5 q9 -10.5 9 -24.5 q0 -19 -10.5 -40.5 q-10.5 -21.5 -17.5 -36.5 q-1 -3 -8 -4 q-7 -1 -6 3 q2 8 4 19 q2 11 2 22 q0 19 -8.5 33 q-8.5 14 -33.5 14 q-26 0 -55 -16 q-31 -15 -71.5 -46.5 q-40.5 -31.5 -82.5 -69 q-42 -37.5 -79 -73 q-37 -35.5 -61 -59.5 q-1 -1 -1 -2.5 q0 -1.5 -2 -3.5 q3 -12 12.5 -40.5 q9.5 -28.5 22 -63 q12.5 -34.5 26.5 -66 q14 -31.5 27 -49.5 q14 -20 35 -20 q22 0 45 19 q23 19 45 44.5 q22 25.5 38 46.5 q5 6 7 6 q2 0 2 -5 q0 -4 -2.5 -11.5 q-2.5 -7.5 -7.5 -13.5 q-23 -28 -50.5 -55.5 q-27.5 -27.5 -56 -45 q-28.5 -17.5 -54.5 -17.5 q-33 0 -54 30 q-23 32 -41 88.5 q-18 56.5 -30 111.5 q-58 -62 -114.5 -122.5 q-56.5 -60.5 -112.5 -104 q-56 -43.5 -111 -55.5 q-5 -1 -9.5 -1.5 q-4.5 -0.5 -9.5 -0.5 Z" /><glyph glyph-name="Y" unicode="Y" d="M117 -39 q-31 0 -59 17.5 q-28 17.5 -42 53.5 q-5 13 -6.5 28 q-1.5 15 -1.5 29 q0 14 5 14 q5 0 5 -9 q0 -46 23.5 -70.5 q23.5 -24.5 59.5 -24.5 q44 0 82.5 24 q38.5 24 70.5 59.5 q32 35.5 57 71.5 q-12 -7 -20 -7 q-11 0 -10 8 q0 2 1.5 5.5 q1.5 3.5 2.5 5.5 q3 8 5.5 17 q2.5 9 5.5 17 q8 32 16 80 q8 48 8 97 q0 42 -8 80 q-8 38 -29 62 l-24 0 q-15 0 -41.5 -2 q-26.5 -2 -53.5 -9 q-27 -7 -45 -23 q-18 -16 -16 -43 q1 -8 6 -21.5 q5 -13.5 6 -16.5 l-10 -8 q-6 11 -15 25.5 q-9 14.5 -16.5 28.5 q-7.5 14 -8.5 21 q-1 10 1.5 26 q2.5 16 15.5 28 q15 13 41.5 17 q26.5 4 54.5 4 q27 0 52 -2 q25 -2 41 -2 q0 0 46.5 0.5 q46.5 0.5 113.5 0.5 l-21 -26 q-28 0 -45.5 0.5 q-17.5 0.5 -31 1 q-13.5 0.5 -32.5 0.5 q35 -24 48.5 -68 q13.5 -44 13.5 -94 q0 -43 -7 -84.5 q-7 -41.5 -15 -70.5 q47 65 90 134 q43 69 96 130 q17 19 40.5 43.5 q23.5 24.5 52 43.5 q28.5 19 57.5 19 q14 0 24 -6 q10 -6 17 -21 q5 -12 5 -22 q0 -16 -6 -29 q-6 -13 -9 -20 q-1 -4 -5 -4 q-4 0 -3 4 q2 5 2 10 q0 5 0 9 q0 18 -9 33 q-9 15 -29 15 q-28 0 -62 -28 q-34 -28 -63 -61 q-52 -60 -89.5 -114 q-37.5 -54 -70.5 -109.5 q-33 -55.5 -71 -121.5 q-21 -37 -48.5 -70.5 q-27.5 -33.5 -62 -54.5 q-34.5 -21 -80.5 -21 Z" /><glyph glyph-name="Z" unicode="Z" d="M640 -254 q-40 0 -79 23 q-39 23 -75 58.5 q-36 35.5 -67 72.5 q-31 37 -55 64 q-31 36 -58 66.5 q-27 30.5 -56 49.5 q-29 19 -66 19 q-31 0 -61.5 -12.5 q-30.5 -12.5 -53.5 -35 q-23 -22.5 -32 -52.5 q-3 -12 -6 -23 q-3 -11 -10 -20 q-7 -10 -20 -10 q-10 0 -19.5 8 q-9.5 8 -9.5 21 q0 12 7 23 q27 43 77.5 97.5 q50.5 54.5 114.5 113.5 q64 59 131 116.5 q67 57.5 127.5 107 q60.5 49.5 103.5 84.5 q-47 1 -94.5 1.5 q-47.5 0.5 -94.5 0.5 q-15 0 -41.5 -2 q-26.5 -2 -53.5 -9 q-27 -7 -45 -23 q-18 -16 -16 -43 q1 -8 6 -21.5 q5 -13.5 6 -16.5 l-10 -8 q-6 11 -15 25.5 q-9 14.5 -16 28.5 q-7 14 -8 21 q0 2 -0.5 5 q-0.5 3 -0.5 6 q0 11 4 22.5 q4 11.5 14 20.5 q16 14 46.5 18 q30.5 4 62.5 4 q25 0 47.5 -1 q22.5 -1 36.5 -1 l233 0 q1 0 1 -3 q0 -3 -2 -9 q-2 -6 -4 -8 q-126 -91 -248.5 -199.5 q-122.5 -108.5 -234.5 -229.5 q30 16 56.5 23 q26.5 7 50.5 7 q42 0 78.5 -20.5 q36.5 -20.5 72 -57.5 q35.5 -37 74.5 -85 q40 -47 81.5 -88.5 q41.5 -41.5 79.5 -66.5 q38 -25 65 -25 q33 0 48 16 q15 16 15 40 q0 30 -20 62 q-7 11 -14.5 20 q-7.5 9 -12.5 14 q-1 2 5.5 6.5 q6.5 4.5 7.5 3.5 q11 -7 21 -15 q10 -8 18 -19 q11 -13 15.5 -28 q4.5 -15 4.5 -29 q0 -28 -15.5 -52.5 q-15.5 -24.5 -41 -39.5 q-25.5 -15 -55.5 -16 Z" /><glyph glyph-name="bracketleft" unicode="[" d="M9 -104 q47 101 98 215 q51 114 103.5 228 q52.5 114 101.5 214 l57 37 q17 3 33.5 4 q16.5 1 32.5 1 q28 0 58.5 -1.5 q30.5 -1.5 67.5 -1.5 l-47 -36 q-30 7 -54.5 8.5 q-24.5 1.5 -44.5 -0.5 q-12 -1 -26.5 -9 q-14.5 -8 -21.5 -21 q-21 -38 -50 -94 q-29 -56 -61 -120 q-32 -64 -63.5 -127.5 q-31.5 -63.5 -58.5 -119 q-27 -55.5 -45.5 -94 q-18.5 -38.5 -25.5 -51.5 q21 -1 51.5 -1.5 q30.5 -0.5 64.5 -0.5 q33 0 66 1 q33 1 58 4 l-54 -31 q-28 -3 -66 -3.5 q-38 -0.5 -78 -0.5 l-96 0 Z" /><glyph glyph-name="bracketright" unicode="]" d="M71 -107 q-28 0 -58.5 1.5 q-30.5 1.5 -67.5 1.5 l48 36 q30 -7 54 -8 q24 -1 45 0 q11 1 26 9 q15 8 22 21 q22 39 50.5 94.5 q28.5 55.5 60.5 119.5 q32 64 63.5 127.5 q31.5 63.5 58 119 q26.5 55.5 45.5 94 q19 38.5 25 51.5 q-20 0 -51 0.5 q-31 0.5 -64 0.5 q-34 0 -66.5 -1 q-32.5 -1 -57.5 -3 l53 31 q28 3 66 3.5 q38 0.5 78 0.5 l96 0 q-47 -101 -98 -215.5 q-51 -114.5 -103 -228 q-52 -113.5 -102 -213.5 l-57 -37 q-16 -3 -32.5 -4 q-16.5 -1 -33.5 -1 Z" /><glyph glyph-name="asciicircum" unicode="^" d="M309 249 q-9 0 -25.5 8.5 q-16.5 8.5 -35 19.5 q-18.5 11 -33.5 22.5 q-15 11.5 -21 17.5 q-5 -3 -20.5 -13.5 q-15.5 -10.5 -33.5 -22.5 q-18 -12 -32.5 -20.5 q-14.5 -8.5 -17.5 -8.5 q-2 0 -4 3 q-2 3 -1 5 q0 4 17 17.5 q17 13.5 40 29 q23 15.5 42 27.5 q19 12 25 13 l5 -2 q21 -23 46 -43 q25 -20 50 -40 l4 -7 l-5 -6 Z" /><glyph glyph-name="underscore" unicode="_" d="" /><glyph glyph-name="grave" unicode="`" d="M184 335 q-6 1 -25.5 11.5 q-19.5 10.5 -43 24 q-23.5 13.5 -41.5 26 q-18 12.5 -21 16.5 q-1 2 -2.5 9 q-1.5 7 -1.5 13 q0 9 3 9 q5 0 16 -8.5 q11 -8.5 22.5 -17.5 q11.5 -9 15.5 -13 q17 -15 37.5 -32 q20.5 -17 39.5 -31 q0 0 1 -3.5 q1 -3.5 0 -3.5 Z" /><glyph glyph-name="a" unicode="a" d="M170 -3 q-10 0 -17 4 q-7 4 -7 15 q0 14 7 32 q7 18 16 35.5 q9 17.5 16 28.5 q-35 -37 -73 -70 q-19 -16 -42 -30 q-23 -14 -49 -14 q-10 0 -14 6.5 q-4 6.5 -4 15.5 q0 5 1 7 q5 39 25 81 q20 42 49 79 q29 37 59 60 q34 26 75 26 l115 0 q5 0 5 -4 q0 -8 -9 -8 q-10 0 -20 -12.5 q-10 -12.5 -15 -20.5 q-7 -11 -22 -37 q-15 -26 -30.5 -56.5 q-15.5 -30.5 -26.5 -56.5 q-11 -26 -11 -38 q0 -14 14 -14 q15 0 34 14 q19 14 38.5 34.5 q19.5 20.5 36 41 q16.5 20.5 26.5 32.5 q6 -6 -0.5 -16.5 q-6.5 -10.5 -11.5 -16.5 q-20 -26 -46 -53.5 q-26 -27.5 -56.5 -46 q-30.5 -18.5 -62.5 -18.5 ZM62 32 q12 0 33.5 17.5 q21.5 17.5 46.5 44 q25 26.5 47 56 q22 29.5 36.5 54 q14.5 24.5 14.5 37.5 q0 11 -6.5 15 q-6.5 4 -16.5 4 q-16 0 -34.5 -11.5 q-18.5 -11.5 -29.5 -22.5 q-12 -11 -28.5 -34.5 q-16.5 -23.5 -32.5 -51.5 q-16 -28 -27 -54 q-11 -26 -11 -42 q0 -12 8 -12 Z" /><glyph glyph-name="b" unicode="b" d="M76 -9 q-13 0 -31 4.5 q-18 4.5 -18 22.5 q0 7 3 16 q3 9 6 16 q10 26 21 53 q11 27 23 55 q-13 -15 -24.5 -27.5 q-11.5 -12.5 -16.5 -18.5 q-3 -4 -5 -4 q-2 0 -2 5 q0 8 5 15 q14 18 32 38 q18 20 35 42 q42 88 94 170.5 q52 82.5 117 146.5 q20 19 45 39 q25 20 53.5 34 q28.5 14 56.5 14 q15 0 27.5 -8 q12.5 -8 13.5 -25 l0 -29 q0 -4 -6 -4 q-3 0 -3 2 q0 16 -14 21.5 q-14 5.5 -28 5.5 q-55 0 -99 -28.5 q-44 -28.5 -78 -74 q-34 -45.5 -61 -100 q-27 -54.5 -48.5 -107 q-21.5 -52.5 -40.5 -93.5 q0 0 0 -2 q0 -2 1 -2 q1 0 16.5 15.5 q15.5 15.5 39 36.5 q23.5 21 49.5 36.5 q26 15.5 48 15.5 q11 0 14 -7.5 q3 -7.5 3 -16.5 l0 -9 q-5 -37 -25.5 -80 q-20.5 -43 -52 -81.5 q-31.5 -38.5 -70 -62.5 q-38.5 -24 -80.5 -24 ZM92 8 q16 0 34.5 12.5 q18.5 12.5 28.5 22.5 q12 11 29 34.5 q17 23.5 33 51.5 q16 28 27 54 q11 26 11 42 q0 5 -2 9 q-2 4 -7 4 q-9 0 -23.5 -11 q-14.5 -11 -31 -26.5 q-16.5 -15.5 -30 -30 q-13.5 -14.5 -19.5 -21.5 q-11 -12 -28 -35 q-17 -23 -30.5 -46.5 q-13.5 -23.5 -13.5 -39.5 q0 -20 22 -20 Z" /><glyph glyph-name="c" unicode="c" d="M76 -8 q-37 0 -52 14 q-15 14 -15 36 q0 29 19 64.5 q19 35.5 36 59.5 q17 23 38.5 43.5 q21.5 20.5 46.5 35.5 q16 10 43.5 21.5 q27.5 11.5 46.5 11.5 q23 0 32 -10.5 q9 -10.5 9 -25.5 q0 -12 -4 -24.5 q-4 -12.5 -9 -23.5 q-3 -6 -9 -8.5 q-6 -2.5 -6 1.5 q0 5 1 9 q1 4 1 9 q0 19 -8.5 37.5 q-8.5 18.5 -25.5 18.5 q-18 0 -39 -12.5 q-21 -12.5 -29 -21.5 q-26 -27 -50.5 -67 q-24.5 -40 -35.5 -76 q-7 -21 -7 -36 q0 -17 9 -24 q9 -7 22 -7 q10 0 21.5 3 q11.5 3 24.5 7 q30 10 60.5 31.5 q30.5 21.5 55.5 46 q25 24.5 38 42.5 q2 -2 2 -6 q0 -5 -4 -11.5 q-4 -6.5 -6 -10.5 q-21 -28 -55 -57.5 q-34 -29.5 -73.5 -49.5 q-39.5 -20 -77.5 -20 Z" /><glyph glyph-name="d" unicode="d" d="M170 -3 q-10 0 -17 4 q-7 4 -7 15 q0 14 7 32 q7 18 16 35.5 q9 17.5 16 28.5 q-35 -37 -73 -70 q-19 -16 -42 -30 q-23 -14 -49 -14 q-10 0 -14 6.5 q-4 6.5 -4 15.5 q0 5 1 7 q5 39 25 81 q20 42 49 79 q29 37 59 60 q23 17 44 21.5 q21 4.5 46 4.5 l33 0 q16 27 33.5 60.5 q17.5 33.5 35 66.5 q17.5 33 32.5 58 q41 70 90.5 112 q49.5 42 110.5 42 q13 0 24 -7.5 q11 -7.5 10 -22.5 l-2 -36 q0 -1 -2 -2.5 q-2 -1.5 -3 -1.5 q-1 0 -3 2 q-3 18 -18 27.5 q-15 9.5 -37 9.5 q-7 0 -15.5 -1 q-8.5 -1 -16.5 -4 q-28 -10 -53 -40.5 q-25 -30.5 -54 -80.5 q-10 -19 -26 -49.5 q-16 -30.5 -33.5 -65.5 q-17.5 -35 -33 -68 q-15.5 -33 -26.5 -56 q-5 -12 -17 -36.5 q-12 -24.5 -25.5 -53 q-13.5 -28.5 -23 -52.5 q-9.5 -24 -9.5 -34 q0 -14 12 -14 q12 0 32 14.5 q20 14.5 41.5 36 q21.5 21.5 39 41.5 q17.5 20 24.5 30 q3 -3 3 -7 q0 -7 -5.5 -14 q-5.5 -7 -9.5 -12 q-18 -24 -44.5 -51.5 q-26.5 -27.5 -57.5 -47 q-31 -19.5 -63 -19.5 ZM62 32 q12 0 33.5 17.5 q21.5 17.5 46.5 44 q25 26.5 47 56 q22 29.5 36.5 54 q14.5 24.5 14.5 37.5 q0 11 -6.5 15 q-6.5 4 -16.5 4 q-16 0 -34.5 -11.5 q-18.5 -11.5 -29.5 -22.5 q-12 -11 -28.5 -34.5 q-16.5 -23.5 -32.5 -51.5 q-16 -28 -27 -54 q-11 -26 -11 -42 q0 -12 8 -12 Z" /><glyph glyph-name="e" unicode="e" d="M91 -8 q-41 0 -57 16 q-16 16 -16 39 q0 29 15.5 62 q15.5 33 29.5 56 q16 24 43 50 q27 26 59 44 q32 18 62 18 q26 0 36 -12.5 q10 -12.5 10 -29.5 q0 -31 -18.5 -51 q-18.5 -20 -45.5 -32.5 q-27 -12.5 -52 -20.5 q-15 -4 -35 -8 q-20 -4 -38 -4 q-7 -18 -11 -35 q-4 -17 -4 -31 q0 -17 8.5 -28 q8.5 -11 28.5 -11 q8 0 19 2 q11 2 24 6 q30 10 59 32 q29 22 53.5 47.5 q24.5 25.5 37.5 42.5 q3 -3 3 -7 q0 -5 -7 -16 q-20 -28 -52 -58 q-32 -30 -71 -50.5 q-39 -20.5 -81 -20.5 ZM92 139 q13 -1 29.5 0.5 q16.5 1.5 32.5 6.5 q41 12 59.5 38.5 q18.5 26.5 18.5 47.5 q0 12 -5 20 q-5 8 -16 8 q-29 0 -52 -21.5 q-23 -21.5 -40 -49.5 q-17 -28 -27 -50 Z" /><glyph glyph-name="f" unicode="f" d="M-198 -226 q-39 0 -65.5 12.5 q-26.5 12.5 -35.5 37.5 q-1 3 -1.5 6 q-0.5 3 -0.5 7 q0 15 7 33.5 q7 18.5 15 39.5 q3 6 7 6 q7 0 4 -10 q-7 -15 -7 -32 q0 -35 30.5 -56.5 q30.5 -21.5 69.5 -21.5 q30 0 58 14 q47 24 77 66 q30 42 53 85 q35 67 60.5 140.5 q25.5 73.5 54.5 145.5 l-23 0 q-5 0 -11 -1 q-6 -1 -11 -2 l-2 1 q2 11 19.5 19.5 q17.5 8.5 27.5 8.5 l12 0 q15 36 35.5 79 q20.5 43 44.5 86.5 q24 43.5 52.5 79.5 q28.5 36 59.5 57 q51 36 113 36 q12 0 23.5 -7.5 q11.5 -7.5 10.5 -22.5 l-3 -36 q0 -2 -3 -3 q-3 -1 -4 1 q-4 20 -21.5 29.5 q-17.5 9.5 -40.5 9.5 q-37 0 -67.5 -24 q-30.5 -24 -65.5 -89 q-13 -25 -28.5 -59 q-15.5 -34 -30.5 -70 q-15 -36 -29 -67 l72 0 q7 0 14.5 0.5 q7.5 0.5 14.5 1.5 q0 -4 -5.5 -7.5 q-5.5 -3.5 -9.5 -5.5 q-25 -13 -47 -14.5 q-22 -1.5 -50 -0.5 q-22 -55 -41.5 -104.5 q-19.5 -49.5 -42.5 -96.5 q-19 -42 -47 -89 q-28 -47 -64 -89 q-36 -42 -80.5 -68 q-44.5 -26 -97.5 -26 Z" /><glyph glyph-name="g" unicode="g" d="M-145 -350 q-38 0 -73.5 17.5 q-35.5 17.5 -52.5 53.5 q-7 13 -9 27.5 q-2 14.5 -2 28.5 l0 10 q0 8 2 15 q2 7 11 7 q2 0 2 -2 q0 -6 -1 -12 q-1 -6 -1 -13 q0 -46 29.5 -70 q29.5 -24 73.5 -24 q18 0 37 4 q19 4 35 11 q64 27 111.5 78 q47.5 51 83 115 q35.5 64 63 131.5 q27.5 67.5 51.5 127.5 q-21 -34 -46 -60.5 q-25 -26.5 -56 -52.5 q-19 -16 -41.5 -30 q-22.5 -14 -48.5 -14 q-10 0 -14 6.5 q-4 6.5 -4 15.5 l0 7 q5 39 25.5 81 q20.5 42 49.5 79 q29 37 59 60 q34 26 75 26 l115 0 q5 0 5 -4 q0 -8 -9 -8 q-11 0 -21 -9 q-10 -9 -15 -17 q-10 -16 -26 -49 q-16 -33 -35 -75.5 q-19 -42.5 -38 -86 q-19 -43.5 -35 -81.5 q-24 -57 -54.5 -111.5 q-30.5 -54.5 -72 -98 q-41.5 -43.5 -98.5 -68.5 q-34 -15 -75 -15 ZM64 32 q12 0 33 17.5 q21 17.5 46 44 q25 26.5 47 56 q22 29.5 36.5 54 q14.5 24.5 14.5 37.5 q0 11 -6.5 15 q-6.5 4 -16.5 4 q-16 0 -34 -11.5 q-18 -11.5 -29 -22.5 q-12 -11 -28.5 -34.5 q-16.5 -23.5 -33 -51.5 q-16.5 -28 -27.5 -54 q-11 -26 -11 -42 q0 -12 9 -12 Z" /><glyph glyph-name="h" unicode="h" d="M182 -6 q-15 0 -26.5 6 q-11.5 6 -11.5 22 q0 9 4 20 q9 23 24.5 56 q15.5 33 31.5 64.5 q16 31.5 25 51.5 q6 12 6 17 q0 9 -10 4 q-10 -5 -22 -14 q-12 -9 -18 -14 q-26 -24 -54.5 -56.5 q-28.5 -32.5 -52 -68 q-23.5 -35.5 -36.5 -70.5 q-1 -6 -13 -10 q-12 -4 -22 -4 q-16 0 -12 10 q23 52 47.5 115 q24.5 63 55.5 129 q23 50 51.5 103 q28.5 53 63.5 101.5 q35 48.5 77 85.5 q37 32 81.5 52.5 q44.5 20.5 96.5 20.5 q23 0 40 -9.5 q17 -9.5 19 -33.5 l0 -9 q0 -14 -3 -28 q-1 -4 -8 -4 q-3 0 -2 1 q4 26 -13.5 37 q-17.5 11 -44.5 11 q-49 0 -90 -18 q-41 -18 -76 -48 q-54 -47 -94 -120 q-40 -73 -69 -149 q-14 -37 -27.5 -74 q-13.5 -37 -25.5 -69 q45 60 86.5 103 q41.5 43 72.5 61 q25 14 45 14 q19 0 19 -16 q0 -14 -14 -36 q-7 -11 -21.5 -37 q-14.5 -26 -30 -56.5 q-15.5 -30.5 -26.5 -56.5 q-11 -26 -11 -38 q0 -16 14 -16 q8 0 18.5 5 q10.5 5 15.5 9 q27 20 53 49 q26 29 44 51 q1 1 1 -3 q0 -4 -1.5 -11.5 q-1.5 -7.5 -6.5 -12.5 q-11 -15 -22.5 -28.5 q-11.5 -13.5 -22.5 -26.5 q-19 -22 -45.5 -42 q-26.5 -20 -59.5 -20 Z" /><glyph glyph-name="i" unicode="i" d="M242 382 q-14 0 -20 9 q-4 5 -4 13 q0 16 15 26 q11 6 20 6 q15 0 21 -9 q4 -5 4 -13 q0 -16 -16 -26 q-9 -6 -20 -6 ZM68 -3 q-10 0 -16.5 4 q-6.5 4 -6.5 15 q0 14 7.5 33 q7.5 19 17 38 q9.5 19 14.5 31 q7 14 17.5 36.5 q10.5 22.5 20 43 q9.5 20.5 13.5 28.5 q-14 -15 -33.5 -37.5 q-19.5 -22.5 -36.5 -43.5 q-17 -21 -26 -33 q-3 -4 -5 -4 q-2 0 -2 5 q0 8 5 15 q19 24 42.5 54 q23.5 30 42.5 55.5 q19 25.5 24 33.5 q11 2 32.5 6 q21.5 4 29.5 11 q3 3 6 3 q2 0 2.5 -3.5 q0.5 -3.5 -2.5 -7.5 q-6 -7 -21 -34 q-15 -27 -31.5 -59.5 q-16.5 -32.5 -30.5 -58.5 q-14 -27 -24 -52 q-10 -25 -10 -36 q0 -14 14 -14 q13 0 33.5 16 q20.5 16 41.5 38.5 q21 22.5 37 41.5 q5 6 12.5 14.5 q7.5 8.5 9.5 10.5 q2 -2 2 -7 q-1 -7 -5 -13.5 q-4 -6.5 -8 -11.5 q-21 -26 -46 -53.5 q-25 -27.5 -55 -46 q-30 -18.5 -65 -18.5 Z" /><glyph glyph-name="j" unicode="j" d="M195 382 q-14 0 -20 9 q-4 5 -4 13 q0 16 16 26 q9 6 20 6 q14 0 20 -9 q4 -5 4 -13 q0 -16 -16 -26 q-9 -6 -20 -6 ZM-283 -350 q-38 0 -73.5 17.5 q-35.5 17.5 -52.5 53.5 q-6 13 -8 27.5 q-2 14.5 -2 28.5 l0 11 q0 8 2 14.5 q2 6.5 10 6.5 q3 0 3 -2 q0 -6 -1.5 -12 q-1.5 -6 -1.5 -13 q0 -46 29.5 -70 q29.5 -24 73.5 -24 q18 0 37 4 q19 4 36 11 q63 27 109.5 76.5 q46.5 49.5 81.5 111.5 q35 62 63 126 q24 56 40 105 q16 49 25.5 81 q9.5 32 12.5 35 q16 16 42 26.5 q26 10.5 41 10.5 q12 0 12 -6 q0 -8 -9 -8 q-11 0 -20 -5.5 q-9 -5.5 -14 -13.5 q-9 -13 -25.5 -47 q-16.5 -34 -36 -78.5 q-19.5 -44.5 -38.5 -90 q-19 -45.5 -35 -83.5 q-24 -57 -54.5 -111.5 q-30.5 -54.5 -72.5 -98 q-42 -43.5 -99 -68.5 q-34 -15 -75 -15 Z" /><glyph glyph-name="k" unicode="k" d="M213 -5 q-25 0 -38 17 q-8 12 -16 36 q-8 24 -14 50 q-6 26 -10 42 q-28 -36 -49.5 -72 q-21.5 -36 -28.5 -56 q-2 -6 -13.5 -10 q-11.5 -4 -22.5 -4 q-16 0 -12 10 q31 69 59 133 q28 64 59.5 129 q31.5 65 71.5 135 q28 51 67.5 98.5 q39.5 47.5 84.5 78 q45 30.5 91 30.5 q15 0 28 -8 q13 -8 13 -25 l0 -29 q0 -4 -6 -4 q-3 0 -3 2 q0 16 -14 21.5 q-14 5.5 -27 5.5 q-35 0 -71 -14 q-40 -16 -67 -48 q-27 -32 -50 -68 q-30 -46 -59 -107.5 q-29 -61.5 -53.5 -123.5 q-24.5 -62 -43.5 -112 q11 14 22 28 q11 14 21 26 q0 2 -0.5 4 q-0.5 2 -0.5 4 q0 7 3 12 q3 5 8 12 q7 10 13 15.5 q6 5.5 13 14.5 l3 -17 q44 45 77 65 q23 14 45 14 q22 0 22 -17 q0 -14 -14 -35 q-5 -7 -6 -10 q-1 -3 -4 -6 q-1 -1 -4 0 q-3 1 -3 3 q0 12 -8 15.5 q-8 3.5 -18 3.5 q-19 0 -40.5 -13.5 q-21.5 -13.5 -43.5 -36.5 q5 -25 11.5 -54.5 q6.5 -29.5 14.5 -54.5 q8 -25 15 -37 q5 -8 14 -10.5 q9 -2.5 15 -2.5 q14 0 32.5 14.5 q18.5 14.5 38 35 q19.5 20.5 36 40.5 q16.5 20 25.5 32 q4 -5 2 -10 q-1 -6 -5.5 -12.5 q-4.5 -6.5 -8.5 -11.5 q-20 -25 -43 -50.5 q-23 -25.5 -49 -45.5 q-11 -9 -27 -15.5 q-16 -6.5 -32 -6.5 Z" /><glyph glyph-name="l" unicode="l" d="M100 -2 q-30 0 -41 14.5 q-11 14.5 -11 35.5 q0 28 12.5 60 q12.5 32 20.5 50 q-13 -14 -25 -27 q-12 -13 -17 -19 q-3 -4 -5 -4 q-2 0 -2 5 q0 8 5 15 q14 18 32 38 q18 20 35 42 q20 37 44.5 86.5 q24.5 49.5 51 102 q26.5 52.5 52 97 q25.5 44.5 45.5 71.5 q17 7 32.5 18 q15.5 11 31 20.5 q15.5 9.5 32.5 9.5 q11 0 16.5 -6 q5.5 -6 7.5 -14 q1 -3 1 -11 q0 -23 -15.5 -56 q-15.5 -33 -36 -64.5 q-20.5 -31.5 -35.5 -51.5 q-40 -56 -82 -101.5 q-42 -45.5 -75.5 -76 q-33.5 -30.5 -48.5 -44.5 q-7 -13 -16.5 -34.5 q-9.5 -21.5 -16.5 -45 q-7 -23.5 -7 -43.5 q0 -17 8 -28.5 q8 -11.5 27 -11.5 q3 0 6 0 q3 0 7 1 q17 3 37 19 q20 16 40 37 q20 21 36 40 q7 8 13 15.5 q6 7.5 8 10.5 q7 -7 -0.5 -17.5 q-7.5 -10.5 -12.5 -17.5 q-7 -9 -20 -24.5 q-13 -15.5 -30 -33.5 q-19 -19 -47 -38 q-28 -19 -57 -19 ZM142 228 q31 26 78.5 74.5 q47.5 48.5 93.5 117.5 q5 8 16.5 27 q11.5 19 24 43.5 q12.5 24.5 21.5 48 q9 23.5 9 40.5 q0 16 -9 16 q-11 0 -29 -19 q-21 -22 -47.5 -64.5 q-26.5 -42.5 -55.5 -94.5 q-29 -52 -55.5 -102 q-26.5 -50 -46.5 -87 Z" /><glyph glyph-name="m" unicode="m" d="M40 -15 q-4 0 0 9 q5 9 9.5 20 q4.5 11 9.5 24 q10 24 22 54 q12 30 23 58.5 q11 28.5 19.5 49 q8.5 20.5 11.5 26.5 q-14 -15 -33.5 -37.5 q-19.5 -22.5 -36.5 -43.5 q-17 -21 -26 -33 q-3 -4 -5 -4 q-2 0 -2 5 q0 8 5 15 q19 24 42.5 54 q23.5 30 42.5 55.5 q19 25.5 24 33.5 q11 2 32.5 6 q21.5 4 29.5 11 q3 3 6 3 q2 0 2.5 -3.5 q0.5 -3.5 -2.5 -7.5 q-6 -7 -20.5 -32.5 q-14.5 -25.5 -31 -56.5 q-16.5 -31 -30.5 -56 q16 19 31.5 36 q15.5 17 21.5 24 q12 12 33 30 q21 18 44 33 q23 15 40 17 q4 1 7 1 q3 0 6 0 q19 0 19 -14 q0 -6 -3 -14 q-3 -8 -8 -16 q-6 -12 -20 -37.5 q-14 -25.5 -25 -46.5 l47 47 q12 12 33 30 q21 18 44 33 q23 15 40 17 q4 1 7.5 1 q3.5 0 5.5 0 q22 0 22 -16 q0 -12 -13 -32 q-7 -11 -22 -37 q-15 -26 -30.5 -56.5 q-15.5 -30.5 -26.5 -56.5 q-11 -26 -11 -38 q0 -14 14 -14 q13 0 33.5 15.5 q20.5 15.5 42 37.5 q21.5 22 37.5 42 q7 8 13.5 16.5 q6.5 8.5 7.5 9.5 q2 -2 2 -7 q0 -7 -4.5 -13.5 q-4.5 -6.5 -8.5 -11.5 q-19 -25 -43.5 -52 q-24.5 -27 -53.5 -45.5 q-29 -18.5 -62 -21.5 q-10 -1 -20 4 q-10 5 -10 16 q0 14 7.5 33 q7.5 19 17 38 q9.5 19 14.5 31 q18 35 33 66 q15 31 21 44 q3 6 3 10 q0 7 -11 1 q-11 -6 -26.5 -18 q-15.5 -12 -28.5 -23.5 q-13 -11.5 -17 -15.5 q-17 -17 -40.5 -46 q-23.5 -29 -43.5 -60.5 q-20 -31.5 -28 -58.5 q-10 -9 -19 -9 q-7 0 -11.5 5 q-4.5 5 -4.5 12 q0 20 12.5 47.5 q12.5 27.5 20.5 45.5 q18 35 33 66 q15 31 21 44 q3 6 3 10 q0 7 -11 1 q-11 -6 -26.5 -18 q-15.5 -12 -28.5 -23.5 q-13 -11.5 -17 -15.5 q-24 -25 -44.5 -51 q-20.5 -26 -34.5 -56 q-8 -18 -17 -40 q-9 -22 -15 -37 q-13 -1 -26 -7 q-13 -6 -18 -6 Z" /><glyph glyph-name="n" unicode="n" d="M40 -15 q-4 0 0 9 q5 9 9.5 20 q4.5 11 9.5 24 q10 24 22 54 q12 30 23 58.5 q11 28.5 19.5 49 q8.5 20.5 11.5 26.5 q-14 -15 -33.5 -37.5 q-19.5 -22.5 -36.5 -43.5 q-17 -21 -26 -33 q-3 -4 -5 -4 q-2 0 -2 5 q0 8 5 15 q19 24 42.5 54 q23.5 30 42.5 55.5 q19 25.5 24 33.5 q11 2 32.5 6 q21.5 4 29.5 11 q3 3 6 3 q2 0 2.5 -3.5 q0.5 -3.5 -2.5 -7.5 q-6 -7 -20.5 -32.5 q-14.5 -25.5 -31 -56.5 q-16.5 -31 -30.5 -56 q12 16 26 31 q14 15 27 29 q12 12 33 30 q21 18 44 33 q23 15 40 17 q4 1 7.5 1 q3.5 0 5.5 0 q22 0 22 -16 q0 -12 -13 -32 q-7 -11 -21.5 -36.5 q-14.5 -25.5 -29 -55 q-14.5 -29.5 -25 -55 q-10.5 -25.5 -10.5 -37.5 q0 -14 14 -14 q17 0 37.5 17 q20.5 17 44.5 43.5 q24 26.5 48 56.5 q2 -2 2 -7 q0 -7 -4.5 -13.5 q-4.5 -6.5 -8.5 -11.5 q-10 -13 -26.5 -32.5 q-16.5 -19.5 -33.5 -38 q-17 -18.5 -31 -29.5 q-10 -7 -26 -15 q-16 -8 -32 -8 q-18 0 -25 9.5 q-7 9.5 -7 23.5 q0 16 6 34 q6 18 13.5 34.5 q7.5 16.5 11.5 24.5 q18 35 33 66 q15 31 21 44 q3 6 3 10 q0 7 -11 1 q-11 -6 -26.5 -18 q-15.5 -12 -28.5 -23.5 q-13 -11.5 -17 -15.5 q-37 -39 -64.5 -86.5 q-27.5 -47.5 -46.5 -97.5 q-13 -1 -26 -7 q-13 -6 -18 -6 Z" /><glyph glyph-name="o" unicode="o" d="M50 -2 q-16 0 -28.5 6.5 q-12.5 6.5 -12.5 28.5 q0 35 18 70.5 q18 35.5 37 62.5 q17 23 38.5 43.5 q21.5 20.5 46.5 35.5 q16 10 43.5 21.5 q27.5 11.5 46.5 11.5 q16 0 28 -8.5 q12 -8.5 12 -30.5 q0 -34 -17.5 -69.5 q-17.5 -35.5 -36.5 -62.5 q-9 -12 -18 -22.5 q-9 -10.5 -20 -21.5 q37 0 68 21.5 q31 21.5 54 52.5 l2 2 q3 0 3 -6 q0 -7 -4 -13 q-20 -28 -50 -49.5 q-30 -21.5 -68 -21.5 q-4 0 -8 0 q-4 0 -8 1 q-56 -52 -126 -52 ZM76 15 q14 0 30.5 10 q16.5 10 25.5 19 q17 17 31 36.5 q14 19.5 26 39.5 q14 24 28 57 q14 33 14 62 q0 23 -16 23 q-13 0 -31.5 -11 q-18.5 -11 -27.5 -20 q-34 -35 -57 -76 q-13 -23 -28 -54 q-15 -31 -15 -57 q0 -4 0.5 -7.5 q0.5 -3.5 1.5 -7.5 q4 -14 18 -14 Z" /><glyph glyph-name="p" unicode="p" d="M-283 -350 q-38 0 -73.5 17.5 q-35.5 17.5 -52.5 53.5 q-6 13 -8 27.5 q-2 14.5 -2 28.5 l0 11 q0 8 2 14.5 q2 6.5 10 6.5 q3 0 3 -2 q0 -6 -1.5 -12 q-1.5 -6 -1.5 -13 q0 -46 29.5 -70 q29.5 -24 73.5 -24 q18 0 37 4 q19 4 36 11 q63 27 110 76 q47 49 82 111 q35 62 62 127 q29 71 55.5 140.5 q26.5 69.5 59.5 136.5 q31 62 66 93 q35 31 70 31 q9 0 17.5 -5 q8.5 -5 7.5 -16 l-2 -28 q0 -3 -4 -3 q0 0 -0.5 0 q-0.5 0 -0.5 1 q0 12 -8.5 16.5 q-8.5 4.5 -16.5 4.5 q-34 0 -60.5 -23.5 q-26.5 -23.5 -46.5 -60.5 q-20 -37 -34 -77.5 q-14 -40.5 -23 -74.5 q7 6 25.5 25 q18.5 19 43.5 41 q25 22 51 38 q26 16 48 16 q13 0 15.5 -11.5 q2.5 -11.5 0.5 -21.5 q-5 -37 -25 -80 q-20 -43 -51.5 -81.5 q-31.5 -38.5 -70 -62.5 q-38.5 -24 -80.5 -24 q-5 0 -13.5 0.5 q-8.5 0.5 -10.5 2.5 q-21 -63 -54 -129 q-33 -66 -79.5 -119.5 q-46.5 -53.5 -110.5 -80.5 q-34 -15 -75 -15 ZM75 8 q15 0 34.5 12.5 q19.5 12.5 29.5 22.5 q12 11 28.5 34.5 q16.5 23.5 33 51.5 q16.5 28 27.5 54 q11 26 11 42 q0 5 -2 9 q-2 4 -7 4 q-9 0 -24 -11 q-15 -11 -31.5 -26.5 q-16.5 -15.5 -30.5 -30 q-14 -14.5 -20 -21.5 q-10 -12 -27 -35 q-17 -23 -30 -46.5 q-13 -23.5 -13 -39.5 q0 -20 21 -20 Z" /><glyph glyph-name="q" unicode="q" d="M-1 -342 q-7 0 -7 7 q1 7 14.5 40 q13.5 33 34.5 82 q21 49 44.5 103 q23.5 54 45.5 102.5 q22 48.5 37.5 81.5 q15.5 33 18.5 38 q-17 -18 -36 -35.5 q-19 -17.5 -38 -34.5 q-19 -16 -41.5 -30 q-22.5 -14 -48.5 -14 q-10 0 -14 6.5 q-4 6.5 -4 15.5 l0 7 q5 39 25.5 81 q20.5 42 49.5 79 q29 37 59 60 q32 26 75 26 l115 0 q5 0 5 -4 q0 -8 -9 -8 q-11 0 -21 -12.5 q-10 -12.5 -15 -20.5 q-25 -39 -54 -91.5 q-29 -52.5 -57.5 -111 q-28.5 -58.5 -53 -114 q-24.5 -55.5 -40.5 -99.5 q23 37 54 81.5 q31 44.5 65.5 90 q34.5 45.5 68 88 q33.5 42.5 59.5 75.5 q2 -4 2 -6 q0 -10 -10 -23 q-34 -45 -74.5 -99 q-40.5 -54 -79.5 -111.5 q-39 -57.5 -70 -113 q-31 -55.5 -47 -105.5 q-1 -4 -11 -11.5 q-10 -7.5 -22 -13.5 q-12 -6 -20 -6 ZM64 32 q12 0 33 17.5 q21 17.5 46 44 q25 26.5 47 56 q22 29.5 36.5 54 q14.5 24.5 14.5 37.5 q0 11 -6.5 15 q-6.5 4 -16.5 4 q-16 0 -34 -11.5 q-18 -11.5 -29 -22.5 q-12 -11 -28.5 -34.5 q-16.5 -23.5 -33 -51.5 q-16.5 -28 -27.5 -54 q-11 -26 -11 -42 q0 -12 9 -12 Z" /><glyph glyph-name="r" unicode="r" d="M40 -14 q-4 0 0 8 q5 9 9.5 20 q4.5 11 9.5 24 q10 24 22 54 q12 30 23 58.5 q11 28.5 19.5 49 q8.5 20.5 11.5 26.5 q-14 -15 -33.5 -37.5 q-19.5 -22.5 -36.5 -43.5 q-17 -21 -26 -33 q-3 -4 -5 -4 q-2 0 -2 5 q0 8 5 15 q19 24 42.5 54 q23.5 30 42.5 55.5 q19 25.5 24 33.5 q11 2 32.5 6 q21.5 4 29.5 11 q3 3 6 3 q2 0 2.5 -3.5 q0.5 -3.5 -2.5 -7.5 q-6 -6 -17.5 -26 q-11.5 -20 -25.5 -46 q-14 -26 -27 -50 q10 15 26.5 35.5 q16.5 20.5 36.5 40 q20 19.5 40.5 32.5 q20.5 13 38.5 13 q13 0 22 -5.5 q9 -5.5 14 -19.5 q3 -7 3 -16 q0 -17 -8.5 -32.5 q-8.5 -15.5 -12.5 -23.5 q-1 -3 -7 -5.5 q-6 -2.5 -5 1.5 q1 5 1.5 10 q0.5 5 0.5 11 q0 17 -6.5 31 q-6.5 14 -23.5 14 q-16 0 -39 -20 q-23 -20 -46 -46 q-29 -34 -46 -64.5 q-17 -30.5 -28 -59.5 q-6 -16 -12 -31.5 q-6 -15.5 -9 -24.5 q-13 -1 -26 -6.5 q-13 -5.5 -18 -5.5 Z" /><glyph glyph-name="s" unicode="s" d="M94 -16 q-18 0 -38 5 q-20 5 -35.5 16.5 q-15.5 11.5 -20.5 31.5 q-1 3 -1 9 q0 14 6.5 31 q6.5 17 16.5 24 q4 2 6.5 0 q2.5 -2 0.5 -4 q-1 -3 -3 -7.5 q-2 -4.5 -3 -9.5 q-3 -26 11 -46 q6 -8 14.5 -15 q8.5 -7 16.5 -12 q7 -4 17 -5.5 q10 -1.5 20 -1.5 q16 0 31 4 q15 4 22 13 q13 16 13 36 q0 15 -8 32 q-8 17 -25 36 q-11 12 -21 26 q-10 14 -13 30 q-1 3 -1.5 6 q-0.5 3 -0.5 6 q-13 -19 -26.5 -35.5 q-13.5 -16.5 -23.5 -28.5 q-4 -6 -7 -6 q-2 0 -2 4 q0 9 8 19 q8 9 18 22.5 q10 13.5 16 21.5 q17 25 25.5 39.5 q8.5 14.5 18.5 26.5 q11 13 27.5 21 q16.5 8 34.5 8 q21 0 38.5 -6.5 q17.5 -6.5 18.5 -32.5 q0 -12 -4.5 -24.5 q-4.5 -12.5 -9.5 -23.5 q-3 -6 -8.5 -8.5 q-5.5 -2.5 -5.5 1.5 q0 4 1 9 q1 5 1 9 q0 17 -6 30 q-5 14 -15 20.5 q-10 6.5 -21 6.5 q-16 0 -31 -12.5 q-15 -12.5 -15 -32.5 q0 -2 0 -5 q0 -3 1 -5 q4 -16 24 -36 q20 -20 31 -35 q19 -26 19 -53 q0 -27 -15.5 -49.5 q-15.5 -22.5 -41 -36 q-25.5 -13.5 -55.5 -13.5 Z" /><glyph glyph-name="t" unicode="t" d="M74 -3 q-10 0 -17 4 q-7 4 -7 15 q0 14 7.5 33 q7.5 19 16.5 38 q9 19 15 31 q5 9 13.5 28.5 q8.5 19.5 18 41 q9.5 21.5 16 36.5 q6.5 15 6.5 15 q-9 -10 -23.5 -28 q-14.5 -18 -31 -37.5 q-16.5 -19.5 -30 -36.5 q-13.5 -17 -19.5 -25 q-3 -4 -5 -4 q-2 0 -2 5 q0 8 5 15 q12 15 29 36.5 q17 21.5 34.5 43.5 q17.5 22 30.5 39 q-8 0 -20.5 -1 q-12.5 -1 -22.5 -2.5 q-10 -1.5 -11 -1.5 q-5 0 1 8 q6 8 16 16 q10 8 15 8 q1 0 16 -0.5 q15 -0.5 22 -0.5 q20 27 39.5 62 q19.5 35 38.5 77 q8 1 27.5 11.5 q19.5 10.5 30.5 21.5 q5 5 8 5 q6 0 0 -8 q-7 -8 -24 -33.5 q-17 -25.5 -38 -61 q-21 -35.5 -40 -74.5 l81 0 q11 0 11 -3 q0 -4 -15 -8 q-17 -5 -35.5 -6 q-18.5 -1 -34 -4 q-15.5 -3 -22.5 -13 q-6 -7 -17 -30 q-11 -23 -23.5 -52.5 q-12.5 -29.5 -21.5 -59 q-9 -29.5 -11 -49.5 l0 -4 q0 -8 5 -13 q5 -5 10 -5 q13 0 33.5 16 q20.5 16 42.5 38.5 q22 22.5 38 41.5 q7 8 12.5 15 q5.5 7 6.5 9 q2 -4 2 -6 q0 -6 -3.5 -13 q-3.5 -7 -7.5 -12 q-19 -25 -46 -52.5 q-27 -27.5 -57.5 -46.5 q-30.5 -19 -62.5 -19 Z" /><glyph glyph-name="u" unicode="u" d="M90 -3 q-10 0 -17 4 q-7 4 -7 15 q0 14 7.5 33 q7.5 19 16.5 38 q9 19 15 31 q12 23 23 46 q11 23 19 39 q8 15 8 20 q0 8 -11.5 0 q-11.5 -8 -21.5 -16 q-22 -21 -46 -49.5 q-24 -28.5 -37 -45.5 q-3 -4 -5 -4 q-2 0 -2 5 q0 8 5 15 q14 20 33 44 q19 24 39 46 q19 20 39 39 q20 19 51 19 q21 0 21 -16 q0 -14 -12 -32 q-7 -11 -22 -37 q-15 -26 -30.5 -56.5 q-15.5 -30.5 -26.5 -56.5 q-11 -26 -11 -38 q0 -14 14 -14 q11 0 27 11.5 q16 11.5 33 27.5 q31 30 56.5 65.5 q25.5 35.5 44 68.5 q18.5 33 29.5 54 q2 4 4.5 9.5 q2.5 5.5 8.5 6.5 q6 1 26 1 q20 0 37 8 l2 0 q3 0 3 -3 q0 -8 -13 -12 q-12 -4 -27.5 -24 q-15.5 -20 -30.5 -48.5 q-15 -28.5 -27 -58.5 q-12 -30 -18 -55 q-6 -25 -3 -37 q4 -14 14 -14 q13 0 36.5 16 q23.5 16 48.5 38.5 q25 22.5 41 41.5 q7 8 13 16 q6 8 8 10 q1 -1 2 -3.5 q1 -2.5 1 -4.5 q-1 -7 -5 -13.5 q-4 -6.5 -9 -11.5 q-19 -25 -45.5 -52.5 q-26.5 -27.5 -57 -46.5 q-30.5 -19 -62.5 -19 q-10 0 -22.5 5 q-12.5 5 -12.5 22 q0 13 7 35.5 q7 22.5 15.5 45 q8.5 22.5 14.5 33.5 q-13 -19 -31.5 -42.5 q-18.5 -23.5 -37.5 -41.5 q-25 -24 -53.5 -40.5 q-28.5 -16.5 -58.5 -16.5 Z" /><glyph glyph-name="v" unicode="v" d="M116 -6 q-14 0 -24 10 q-10 10 -10 35 q0 22 3.5 52 q3.5 30 10.5 61.5 q7 31.5 16 55.5 q-17 -25 -38 -51.5 q-21 -26.5 -35 -44.5 q-3 -4 -5 -4 q-2 0 -2 5 q0 8 5 15 q21 29 47.5 66 q26.5 37 45.5 67 q11 2 26.5 6 q15.5 4 22.5 11 q5 3 6 3 q3 0 3 -3.5 q0 -3.5 -3 -7.5 q-9 -13 -19.5 -40 q-10.5 -27 -21 -60 q-10.5 -33 -17 -64.5 q-6.5 -31.5 -6.5 -53.5 q0 -16 5 -22.5 q5 -6.5 13 -6.5 q11 0 26.5 11 q15.5 11 26.5 23 q14 15 31.5 40 q17.5 25 33 53 q15.5 28 23.5 51 q6 16 8 27.5 q2 11.5 2 18.5 q0 12 -3 17 q-3 5 -5 6 q-6 2 -6 5 q0 2 4 3.5 q4 1.5 8 -0.5 q13 -4 26 -11.5 q13 -7.5 13 -28.5 q0 -5 -1 -11.5 q-1 -6.5 -4 -14.5 q-6 -16 -24.5 -45 q-18.5 -29 -42.5 -61 q-24 -32 -48 -58 q-24 -26 -42 -37 q-12 -7 -25 -12 q-13 -5 -24 -5 Z" /><glyph glyph-name="w" unicode="w" d="M116 -6 q-14 0 -24 10 q-10 10 -10 35 q0 22 3.5 52 q3.5 30 10.5 61.5 q7 31.5 16 55.5 q-17 -25 -38 -51.5 q-21 -26.5 -35 -44.5 q-3 -4 -5 -4 q-2 0 -2 5 q0 8 5 15 q21 29 47.5 66 q26.5 37 45.5 67 q11 2 26.5 6 q15.5 4 22.5 11 q5 3 6 3 q3 0 3 -3.5 q0 -3.5 -3 -7.5 q-9 -13 -20 -40.5 q-11 -27.5 -21 -61 q-10 -33.5 -16.5 -65.5 q-6.5 -32 -6.5 -53 q0 -16 5.5 -22 q5.5 -6 12.5 -6 q14 0 29.5 13 q15.5 13 31 32 q15.5 19 27.5 37 q12 18 18 28 q20 32 38.5 69.5 q18.5 37.5 31.5 59.5 q11 2 26.5 6 q15.5 4 23.5 11 q3 3 5 3 q3 0 3.5 -3.5 q0.5 -3.5 -2.5 -7.5 q-9 -13 -19 -40 q-10 -27 -19.5 -59.5 q-9.5 -32.5 -15.5 -64 q-6 -31.5 -6 -53.5 q0 -30 22 -30 q15 0 33.5 11 q18.5 11 30.5 23 q34 35 57 69 q23 34 39 78 q6 15 8 26.5 q2 11.5 2 21.5 q0 14 -4.5 22.5 q-4.5 8.5 -9.5 9.5 q-5 2 -5 5 q0 2 5 4.5 q5 2.5 11 1.5 q16 -4 27.5 -14.5 q11.5 -10.5 11.5 -30.5 q0 -16 -7 -34 q-14 -37 -40.5 -76.5 q-26.5 -39.5 -59.5 -73.5 q-33 -34 -69 -55 q-13 -7 -27 -12 q-14 -5 -27 -5 q-16 0 -27.5 10 q-11.5 10 -11.5 35 q0 26 5.5 62 q5.5 36 14.5 70 q-7 -11 -13.5 -23.5 q-6.5 -12.5 -14.5 -25.5 q-25 -36 -51.5 -68 q-26.5 -32 -45.5 -43 q-12 -7 -25 -12 q-13 -5 -24 -5 Z" /><glyph glyph-name="x" unicode="x" d="M194 -6 q-10 0 -20 5 q-13 6 -25 24 q-12 18 -20 38 q-8 20 -11 33 q-28 -24 -48 -47 q-20 -23 -46 -49 q-3 -3 -15 -3 q-7 0 -14 2 q-7 2 -7 6 q0 5 6 9 q35 28 61 48.5 q26 20.5 60 48.5 q-1 5 -4 22 q-3 17 -6.5 37 q-3.5 20 -5.5 35.5 q-2 15.5 -2 18.5 q2 12 13 21.5 q11 9.5 25.5 15 q14.5 5.5 25.5 5.5 q14 0 14 -7 q0 -4 -8 -4 q-13 0 -16 -11 q-3 -11 -4 -18 q-1 -6 -1.5 -12 q-0.5 -6 -0.5 -12 q0 -15 2 -30 q2 -15 5 -29 q5 4 20 16 q15 12 35 28 q20 16 40 32 q20 16 34 27 q14 11 17 13 q12 8 29.5 7.5 q17.5 -0.5 30.5 -0.5 q3 0 3 -6 q0 -9 -4 -9 q-14 -1 -28.5 -6.5 q-14.5 -5.5 -22.5 -9.5 q-23 -10 -50.5 -29.5 q-27.5 -19.5 -53.5 -40 q-26 -20.5 -46 -37.5 q2 -9 8.5 -31 q6.5 -22 16.5 -42 q12 -26 29 -26 q14 0 27 16 q13 16 22.5 36.5 q9.5 20.5 12.5 34.5 q2 6 5 6 q7 0 5 -11 q-5 -23 -17 -50 q-12 -27 -30 -46 q-18 -19 -41 -19 Z" /><glyph glyph-name="y" unicode="y" d="M-69 -350 q-38 0 -73.5 17.5 q-35.5 17.5 -52.5 53.5 q-6 13 -8 27.5 q-2 14.5 -2 28.5 l0 11 q0 8 2 14.5 q2 6.5 10 6.5 q2 0 2 -2 q0 -6 -1 -12 q-1 -6 -1 -13 q0 -46 29.5 -70 q29.5 -24 73.5 -24 q18 0 37 4 q19 4 36 11 q63 27 109.5 76.5 q46.5 49.5 81.5 111.5 q35 62 63 126 q16 38 28.5 74 q12.5 36 22.5 65 q-10 -14 -26 -34 q-16 -20 -32 -38.5 q-16 -18.5 -28 -29.5 q-25 -24 -53.5 -40.5 q-28.5 -16.5 -58.5 -16.5 q-10 0 -17 4 q-7 4 -7 15 q0 14 7.5 33 q7.5 19 16.5 38 q9 19 15 31 q12 23 23 46 q11 23 19 39 q8 15 8 20 q0 8 -11.5 0 q-11.5 -8 -21.5 -16 q-22 -21 -46 -49.5 q-24 -28.5 -37 -45.5 q-3 -4 -5 -4 q-2 0 -2 5 q0 8 5 15 q14 20 33 44 q19 24 39 46 q19 20 39 39 q20 19 51 19 q21 0 21 -16 q0 -14 -12 -32 q-7 -11 -22 -37 q-15 -26 -30.5 -56.5 q-15.5 -30.5 -26.5 -56.5 q-11 -26 -11 -38 q0 -14 14 -14 q11 0 27 11.5 q16 11.5 33 27.5 q29 28 53.5 62 q24.5 34 42.5 65 q3 5 10.5 18 q7.5 13 16 25 q8.5 12 13.5 14 q5 2 20 11 q15 9 30 12 q14 3 21 3 q11 0 11 -6 q0 -8 -9 -8 q-11 0 -20 -5.5 q-9 -5.5 -14 -13.5 q-9 -13 -25.5 -47 q-16.5 -34 -36 -78.5 q-19.5 -44.5 -38.5 -90 q-19 -45.5 -35 -83.5 q-24 -57 -55 -111.5 q-31 -54.5 -72.5 -98 q-41.5 -43.5 -98.5 -68.5 q-34 -15 -75 -15 Z" /><glyph glyph-name="z" unicode="z" d="M305 -127 q-15 0 -30 8.5 q-15 8.5 -37.5 31.5 q-22.5 23 -62.5 68 q-22 26 -41.5 46 q-19.5 20 -47.5 20 q-22 0 -43 -13.5 q-21 -13.5 -27 -35.5 q-1 -6 -3 -11 q-2 -5 -5 -10 q-3 -5 -10 -5 q-5 0 -9.5 4 q-4.5 4 -4.5 11 q0 3 4 11 q5 9 19 24.5 q14 15.5 31 33.5 q17 18 32 33.5 q15 15.5 24 22.5 q41 35 76.5 67.5 q35.5 32.5 77.5 66.5 q-13 0 -36 -1 q-23 -1 -48.5 -3 q-25.5 -2 -44.5 -6 q-19 -4 -24 -11 q-7 -9 -14 -9 q-4 0 -4 3 q0 3 5 8 q9 10 14 19.5 q5 9.5 10 18.5 q11 -1 22 -1.5 q11 -0.5 23 -0.5 q30 0 61.5 1.5 q31.5 1.5 58.5 1.5 q9 0 14.5 -12.5 q5.5 -12.5 6.5 -19.5 q-34 -25 -76 -54.5 q-42 -29.5 -82 -61.5 q-19 -14 -43.5 -36.5 q-24.5 -22.5 -41.5 -36.5 q28 14 52 14 q32 0 57.5 -21 q25.5 -21 55.5 -50 q30 -30 60 -52 q30 -22 51 -22 q7 1 14 3 q7 2 12 6 q8 7 8 16 q0 11 -9 22.5 q-9 11.5 -16 15.5 q-1 1 -1 2 q0 3 4 5 q4 2 8 0 q13 -7 21 -20 q8 -13 8 -29 q0 -16 -10 -30 q-9 -13 -25 -22.5 q-16 -9.5 -34 -9.5 Z" /><glyph glyph-name="braceleft" unicode="{" d="M225 -101 q-18 0 -42 1.5 q-24 1.5 -46 7 q-22 5.5 -36 18 q-14 12.5 -11 34.5 q5 38 22 71.5 q17 33.5 34 67.5 q17 34 21 71 q5 32 -23 43 q-28 11 -66 15 l13 13 q62 1 99.5 25 q37.5 24 62.5 76 q7 14 12.5 29 q5.5 15 11.5 30 q14 36 39 69 q25 33 64 57.5 q39 24.5 94 32.5 q5 0 12.5 0.5 q7.5 0.5 15.5 0.5 q10 0 18 -1 q8 -1 10 -3 q2 -3 4.5 -7 q2.5 -4 2.5 -6 q-19 4 -46 2 q-38 -3 -64 -16.5 q-26 -13.5 -46 -45.5 q-18 -32 -33 -70.5 q-15 -38.5 -34 -73.5 q-19 -35 -49 -58 q-44 -36 -103 -50 q27 -6 47.5 -22.5 q20.5 -16.5 16.5 -47.5 q-4 -36 -20 -69 q-16 -33 -31.5 -65.5 q-15.5 -32.5 -20.5 -68.5 q-3 -28 10.5 -35 q13.5 -7 35.5 -9 q3 0 7.5 -0.5 q4.5 -0.5 9.5 -0.5 q7 0 14 0.5 q7 0.5 12 1.5 q-3 -7 -8.5 -12 q-5.5 -5 -9.5 -5 Z" /><glyph glyph-name="bar" unicode="|" d="M64 0 q6 17 23 59.5 q17 42.5 41 100.5 q24 58 50 122 q26 64 50.5 123.5 q24.5 59.5 43 105 q18.5 45.5 26.5 66.5 l47 0 q-4 -6 -18 -37.5 q-14 -31.5 -34.5 -80.5 q-20.5 -49 -44 -106.5 q-23.5 -57.5 -47 -116 q-23.5 -58.5 -44 -108.5 q-20.5 -50 -34 -84.5 q-13.5 -34.5 -17.5 -43.5 l-42 0 Z" /><glyph glyph-name="braceright" unicode="}" d="M-3 -103 q-9 0 -16 1 q-7 1 -9 3 q-5 6 -7 13 q19 -4 47 -2 q38 3 64 16.5 q26 13.5 45 45.5 q19 32 34 70.5 q15 38.5 34 74 q19 35.5 48 58.5 q21 16 48 29 q27 13 55 20 q-27 6 -47.5 22.5 q-20.5 16.5 -16.5 47.5 q5 37 20.5 69.5 q15.5 32.5 31.5 65 q16 32.5 20 68.5 q3 29 -10 35.5 q-13 6.5 -36 8.5 q-3 0 -7 0.5 q-4 0.5 -9 0.5 q-7 0 -14 -0.5 q-7 -0.5 -13 -1.5 q4 7 9 12.5 q5 5.5 9 5.5 q18 0 42 -1.5 q24 -1.5 46 -7.5 q22 -6 36 -18.5 q14 -12.5 11 -34.5 q-4 -37 -21.5 -71 q-17.5 -34 -34.5 -67.5 q-17 -33.5 -21 -70.5 q-4 -33 23.5 -44 q27.5 -11 66.5 -15 l-13 -13 q-62 -1 -99.5 -24.5 q-37.5 -23.5 -62.5 -76.5 q-7 -14 -13 -29 q-6 -15 -12 -30 q-14 -35 -39 -68.5 q-25 -33.5 -63.5 -57.5 q-38.5 -24 -94.5 -32 q-12 -2 -31 -2 Z" /><glyph glyph-name="asciitilde" unicode="~" d="M244 319 q-22 0 -41.5 7 q-19.5 7 -38 13.5 q-18.5 6.5 -38.5 6.5 q-13 0 -23.5 -6.5 q-10.5 -6.5 -19.5 -14.5 l-8 10 q10 8 26 19.5 q16 11.5 29 11.5 q18 0 35.5 -7 q17.5 -7 36.5 -14 q19 -7 43 -7 q16 0 24.5 6.5 q8.5 6.5 21.5 14.5 l6 -7 q-7 -7 -24.5 -20 q-17.5 -13 -28.5 -13 Z" /><glyph glyph-name="ellipsis" unicode="&#x2026;" d="M233 -6 q-10 0 -20.5 7.5 q-10.5 7.5 -16.5 14.5 q-1 2 8 8.5 q9 6.5 19.5 12.5 q10.5 6 11.5 5 q8 -4 16 -8.5 q8 -4.5 17 -3.5 l4 0 q5 0 5 -3 q0 -3 -7 -10 q-9 -7 -18.5 -15 q-9.5 -8 -18.5 -8 ZM70 -6 q-10 0 -20.5 7.5 q-10.5 7.5 -16.5 14.5 q-1 2 8 8.5 q9 6.5 19.5 12.5 q10.5 6 11.5 5 q8 -4 16 -8.5 q8 -4.5 17 -3.5 l4 0 q5 0 5 -3 q0 -3 -7 -10 q-9 -7 -18.5 -15 q-9.5 -8 -18.5 -8 ZM408 -6 q-11 0 -21 7.5 q-10 7.5 -16 14.5 q-1 2 8 8.5 q9 6.5 19 12.5 q10 6 12 5 q8 -4 15.5 -8.5 q7.5 -4.5 16.5 -3.5 l4 0 q5 0 5 -3 q0 -3 -7 -10 q-8 -7 -18 -15 q-10 -8 -18 -8 Z" /><glyph glyph-name="emdash" unicode="&#x2014;" d="M493 142 q-7 0 -34 0.5 q-27 0.5 -61 1.5 q-34 1 -63.5 1.5 q-29.5 0.5 -40.5 0.5 q-13 0 -43.5 0 q-30.5 0 -66 -0.5 q-35.5 -0.5 -66 -1 q-30.5 -0.5 -43.5 -1.5 q-2 0 3 7 q5 7 12 14 q7 7 11 6 q6 -1 32.5 -2 q26.5 -1 60 -1.5 q33.5 -0.5 62.5 -0.5 q29 0 40 0 q15 0 48 0.5 q33 0.5 70.5 1 q37.5 0.5 67 1 q29.5 0.5 37.5 0.5 q3 0 -2 -7 q-5 -7 -12 -13.5 q-7 -6.5 -12 -6.5 Z" /><glyph glyph-name="quotedblleft" unicode="&#x201c;" d="M220 449 q-11 2 -16 9.5 q-5 7.5 -5 17.5 q0 4 0.5 7.5 q0.5 3.5 1.5 7.5 q8 37 31 65.5 q23 28.5 51 47.5 q5 4 9.5 6 q4.5 2 4.5 2 l-2 -8 q-1 -2 -1.5 -4 q-0.5 -2 -6.5 -7 q-16 -14 -28.5 -32.5 q-12.5 -18.5 -17.5 -40.5 q-2 -12 5 -22.5 q7 -10.5 20 -12.5 l-4 -11 q-5 -1 -13.5 -5.5 q-8.5 -4.5 -13.5 -7.5 q-4 -3 -8 -7.5 q-4 -4.5 -7 -4.5 ZM117 449 q-21 3 -21 26 q0 4 0.5 8 q0.5 4 1.5 8 q8 37 30.5 65.5 q22.5 28.5 50.5 47.5 q6 4 10.5 6 q4.5 2 4.5 2 l-2 -8 q-1 -2 -1.5 -4 q-0.5 -2 -6.5 -7 q-16 -14 -28.5 -32.5 q-12.5 -18.5 -17.5 -40.5 q-2 -12 5 -22.5 q7 -10.5 20 -12.5 l-4 -11 q-5 -1 -14 -5.5 q-9 -4.5 -13 -7.5 q-4 -3 -8 -7.5 q-4 -4.5 -7 -4.5 Z" /><glyph glyph-name="quotedblright" unicode="&#x201d;" d="M288 458 q-6 -4 -10.5 -6 q-4.5 -2 -4.5 -2 l2 8 q1 3 1.5 5 q0.5 2 6.5 6 q17 14 29.5 33 q12.5 19 16.5 40 q3 13 -4.5 23 q-7.5 10 -20.5 12 l4 11 q5 2 14 6.5 q9 4.5 13 7.5 q5 3 9 7.5 q4 4.5 6 3.5 q21 -3 21 -26 q0 -4 -0.5 -7.5 q-0.5 -3.5 -1.5 -8.5 q-7 -36 -30 -64.5 q-23 -28.5 -51 -48.5 ZM185 458 q-6 -4 -10.5 -6 q-4.5 -2 -4.5 -2 l2 8 q1 3 1.5 5 q0.5 2 6.5 6 q17 14 29.5 33 q12.5 19 16.5 40 q2 13 -5 23 q-7 10 -20 12 l4 11 q5 2 14 6.5 q9 4.5 13 7.5 q4 3 8 7.5 q4 4.5 7 3.5 q21 -3 21 -26 q0 -4 -0.5 -7.5 q-0.5 -3.5 -1.5 -8.5 q-8 -36 -30.5 -64.5 q-22.5 -28.5 -50.5 -48.5 Z" /><glyph glyph-name="quoteleft" unicode="&#x2018;" d="M93 450 q-21 3 -21 26 q0 4 0.5 8 q0.5 4 1.5 8 q8 37 31 65 q23 28 51 48 q5 4 9.5 6 q4.5 2 4.5 2 l-2 -8 q-1 -3 -1.5 -4.5 q-0.5 -1.5 -6.5 -6.5 q-16 -14 -28.5 -33 q-12.5 -19 -17.5 -40 q-2 -12 5 -22.5 q7 -10.5 20 -12.5 l-4 -11 q-5 -1 -13.5 -6 q-8.5 -5 -13.5 -8 q-4 -3 -8 -7.5 q-4 -4.5 -7 -3.5 Z" /><glyph glyph-name="quoteright" unicode="&#x2019;" d="M185 458 q-6 -4 -10.5 -6 q-4.5 -2 -4.5 -2 l2 8 q1 3 1.5 5 q0.5 2 6.5 6 q17 14 29.5 33 q12.5 19 16.5 40 q2 13 -5 23 q-7 10 -20 12 l4 11 q5 2 14 6.5 q9 4.5 13 7.5 q4 3 8 7.5 q4 4.5 7 3.5 q21 -3 21 -26 q0 -4 -0.5 -7.5 q-0.5 -3.5 -1.5 -8.5 q-8 -36 -30.5 -64.5 q-22.5 -28.5 -50.5 -48.5 Z" /></font>
</defs>
</svg>
